<?xml version="1.0" encoding="UTF-8" standalone="no"?>
<!-- Created with Inkscape (http://www.inkscape.org/) -->

<svg
   xmlns:dc="http://purl.org/dc/elements/1.1/"
   xmlns:cc="http://creativecommons.org/ns#"
   xmlns:rdf="http://www.w3.org/1999/02/22-rdf-syntax-ns#"
   xmlns:svg="http://www.w3.org/2000/svg"
   xmlns="http://www.w3.org/2000/svg"
   xmlns:sodipodi="http://sodipodi.sourceforge.net/DTD/sodipodi-0.dtd"
   xmlns:inkscape="http://www.inkscape.org/namespaces/inkscape"
   width="371.06631mm"
   height="149.70244mm"
   viewBox="0 0 371.06631 149.70244"
   version="1.1"
   id="svg147"
   inkscape:version="0.92.4 (5da689c313, 2019-01-14)"
   sodipodi:docname="animatepath2.svg">
  <defs
     id="defs141" />
  <sodipodi:namedview
     id="base"
     pagecolor="#ffffff"
     bordercolor="#666666"
     borderopacity="1.0"
     inkscape:pageopacity="0.0"
     inkscape:pageshadow="2"
     inkscape:zoom="0.35"
     inkscape:cx="1064.0849"
     inkscape:cy="268.61651"
     inkscape:document-units="mm"
     inkscape:current-layer="layer1"
     showgrid="false"
     fit-margin-top="0"
     fit-margin-left="0"
     fit-margin-right="0"
     fit-margin-bottom="0"
     inkscape:window-width="1920"
     inkscape:window-height="1017"
     inkscape:window-x="-8"
     inkscape:window-y="-8"
     inkscape:window-maximized="1" />
  <metadata
     id="metadata144">
    <rdf:RDF>
      <cc:Work
         rdf:about="">
        <dc:format>image/svg+xml</dc:format>
        <dc:type
           rdf:resource="http://purl.org/dc/dcmitype/StillImage" />
        <dc:title></dc:title>
      </cc:Work>
    </rdf:RDF>
  </metadata>
  <g
     inkscape:label="Layer 1"
     inkscape:groupmode="layer"
     id="layer1"
     transform="translate(175.70578,-70.202354)">
    <path
       style="fill:none;stroke:#000000;stroke-width:0.26458332px;stroke-linecap:butt;stroke-linejoin:miter;stroke-opacity:1"
       d="m -35.111051,70.426315 c 0,0 -121.874909,-2.672694 -138.980159,20.847024 -17.10525,23.519721 118.667669,47.573971 158.223559,47.039431 39.55589,-0.53454 120.805831,-4.27631 156.619941,-10.69078 35.81411,-6.41447 67.35191,-16.03617 49.1776,-22.98517 -18.17433,-6.949012 -330.87968,-26.192419 -339.4323,-4.810856 -8.55263,21.381556 69.490073,57.730216 106.373269,66.817376 36.8831997,9.08716 108.51143,16.57071 160.361721,2.6727 51.85029,-13.89802 57.19567,-28.33057 33.14142,-31.53781 -24.05425,-3.20723 -241.611655,-1.06908 -226.110024,21.38156 15.501633,22.45064 32.328183,34.05552 59.024043,47.34104 26.6958497,13.28552 26.6958497,13.28552 26.6958497,13.28552"
       id="path112"
       inkscape:connector-curvature="0" />
  </g>
</svg>
