<?xml version="1.0" encoding="UTF-8" standalone="no"?>
<!-- Created with Inkscape (http://www.inkscape.org/) -->

<svg
   xmlns:dc="http://purl.org/dc/elements/1.1/"
   xmlns:cc="http://creativecommons.org/ns#"
   xmlns:rdf="http://www.w3.org/1999/02/22-rdf-syntax-ns#"
   xmlns:svg="http://www.w3.org/2000/svg"
   xmlns="http://www.w3.org/2000/svg"
   xmlns:sodipodi="http://sodipodi.sourceforge.net/DTD/sodipodi-0.dtd"
   xmlns:inkscape="http://www.inkscape.org/namespaces/inkscape"
   width="320mm"
   height="297mm"
   viewBox="0 0 320 297"
   version="1.1"
   id="svg38"
   inkscape:version="0.92.4 (5da689c313, 2019-01-14)"
   sodipodi:docname="ball with path.svg">
  <defs
     id="defs32" />
  <sodipodi:namedview
     id="base"
     pagecolor="#ffffff"
     bordercolor="#666666"
     borderopacity="1.0"
     inkscape:pageopacity="0.0"
     inkscape:pageshadow="2"
     inkscape:zoom="0.49497475"
     inkscape:cx="-51.161247"
     inkscape:cy="694.3892"
     inkscape:document-units="mm"
     inkscape:current-layer="layer1"
     showgrid="false"
     inkscape:window-width="1920"
     inkscape:window-height="1017"
     inkscape:window-x="-8"
     inkscape:window-y="-8"
     inkscape:window-maximized="1" />
  <metadata
     id="metadata35">
    <rdf:RDF>
      <cc:Work
         rdf:about="">
        <dc:format>image/svg+xml</dc:format>
        <dc:type
           rdf:resource="http://purl.org/dc/dcmitype/StillImage" />
        <dc:title></dc:title>
      </cc:Work>
    </rdf:RDF>
  </metadata>
  <g
     inkscape:label="Layer 1"
     inkscape:groupmode="layer"
     id="layer1">
    <circle
       style="opacity:1;fill:#460082;fill-opacity:1;fill-rule:evenodd;stroke:#ffffff;stroke-width:0.5291667;stroke-linecap:round;stroke-linejoin:round;stroke-miterlimit:4;stroke-dasharray:none;stroke-dashoffset:0;stroke-opacity:1"
       id="path4991"
       cx="305.51553"
       cy="17.920185"
       r="13.229166" />
    <ellipse
       style="opacity:1;fill:#460082;fill-opacity:1;fill-rule:evenodd;stroke:#ffffff;stroke-width:0.5291667;stroke-linecap:round;stroke-linejoin:round;stroke-miterlimit:4;stroke-dasharray:none;stroke-dashoffset:0;stroke-opacity:1"
       id="path4993"
       cx="305.51553"
       cy="7.6911798"
       rx="5.2024026"
       ry="2.247438" />
    <path
       style="fill:#460082;fill-opacity:1;stroke:#ffffff;stroke-width:0.5291667;stroke-linecap:butt;stroke-linejoin:miter;stroke-miterlimit:4;stroke-dasharray:none;stroke-opacity:1"
       d="m 301.9661,9.6803206 c 0,0 -2.92376,3.0176674 -3.12421,9.6993974 1e-5,6.94902 4.39849,11.69837 4.39849,11.69837"
       id="path4995"
       inkscape:connector-curvature="0"
       sodipodi:nodetypes="ccc" />
    <path
       style="fill:#460082;fill-opacity:1;stroke:#ffffff;stroke-width:0.52916676;stroke-linecap:butt;stroke-linejoin:miter;stroke-miterlimit:4;stroke-dasharray:none;stroke-opacity:1"
       d="m 308.3353,9.6803206 c 0,0 2.92376,3.0176674 3.12421,9.6993974 -1e-5,6.94902 -4.39849,11.69837 -4.39849,11.69837"
       id="path4995-7"
       inkscape:connector-curvature="0"
       sodipodi:nodetypes="ccc" />
    <path
       style="fill:none;stroke:#000000;stroke-width:0.26458332px;stroke-linecap:butt;stroke-linejoin:miter;stroke-opacity:1"
       d="M 291.85833,21.712378 C 44.901281,63.406424 19.777945,102.96231 19.777945,102.96231 c 0,0 -27.2614916,18.17433 39.555888,43.8322 66.817387,25.65788 246.422497,-4.81085 251.767907,-14.96709 5.34537,-10.15624 -89.80257,-45.435817 -134.16932,-38.486811 -44.36674,6.949011 -145.929154,23.519721 -142.187382,42.763121 3.741774,19.24341 36.883194,45.43582 81.249932,61.472 44.36675,16.03617 117.06406,11.22531 125.61668,8.01808 8.55262,-3.20723 68.42101,-24.5888 55.05752,-29.39965 -13.36347,-4.81085 -215.953773,0 -213.815617,24.05426 2.138156,24.05426 72.697307,71.09369 72.697307,71.09369 l -1.06908,3.20723"
       id="path123"
       inkscape:connector-curvature="0" />
  </g>
</svg>
