<?xml version="1.0" encoding="UTF-8" standalone="no"?>
<!-- Created with Inkscape (http://www.inkscape.org/) -->

<svg
   width="43.947922mm"
   height="32.549515mm"
   viewBox="0 0 43.947922 32.549515"
   version="1.1"
   id="svg7078"
   inkscape:version="1.1.1 (3bf5ae0d25, 2021-09-20)"
   sodipodi:docname="camera.svg"
   xmlns:inkscape="http://www.inkscape.org/namespaces/inkscape"
   xmlns:sodipodi="http://sodipodi.sourceforge.net/DTD/sodipodi-0.dtd"
   xmlns="http://www.w3.org/2000/svg"
   xmlns:svg="http://www.w3.org/2000/svg"
   xmlns:rdf="http://www.w3.org/1999/02/22-rdf-syntax-ns#"
   xmlns:cc="http://creativecommons.org/ns#"
   xmlns:dc="http://purl.org/dc/elements/1.1/">
  <defs
     id="defs7072">
    <inkscape:path-effect
       effect="slice"
       start_point="58.298729,109.31302"
       end_point="58.298729,120.55781"
       center_point="58.298729,114.93542"
       id="path-effect3183"
       is_visible="true"
       lpeversion="1"
       allow_transforms="true" />
    <mask
       maskUnits="userSpaceOnUse"
       id="mask8064">
      <circle
         r="5.1239824"
         cy="141.08113"
         cx="87.835686"
         id="circle8066"
         style="fill:#ffffff;fill-opacity:1;fill-rule:evenodd;stroke:none;stroke-width:0.529167;stroke-linecap:round;stroke-linejoin:round;stroke-miterlimit:4;stroke-dasharray:none;stroke-dashoffset:0;stroke-opacity:1" />
    </mask>
  </defs>
  <sodipodi:namedview
     id="base"
     pagecolor="#ffffff"
     bordercolor="#666666"
     borderopacity="1.0"
     inkscape:pageopacity="0.0"
     inkscape:pageshadow="2"
     inkscape:zoom="2.8"
     inkscape:cx="142.32143"
     inkscape:cy="-8.0357143"
     inkscape:document-units="mm"
     inkscape:current-layer="layer1"
     showgrid="false"
     fit-margin-top="0"
     fit-margin-left="0"
     fit-margin-right="0"
     fit-margin-bottom="0"
     inkscape:window-width="1920"
     inkscape:window-height="1017"
     inkscape:window-x="-8"
     inkscape:window-y="-8"
     inkscape:window-maximized="1"
     inkscape:pagecheckerboard="0" />
  <metadata
     id="metadata7075">
    <rdf:RDF>
      <cc:Work
         rdf:about="">
        <dc:format>image/svg+xml</dc:format>
        <dc:type
           rdf:resource="http://purl.org/dc/dcmitype/StillImage" />
      </cc:Work>
    </rdf:RDF>
  </metadata>
  <g
     inkscape:label="Layer 1"
     inkscape:groupmode="layer"
     id="layer1"
     transform="translate(-65.716515,-120.46334)">
    <rect
       ry="3.4149354"
       y="124.46365"
       x="65.981102"
       height="28.284616"
       width="43.418755"
       id="rect4743"
       style="fill:#460082;fill-opacity:1;fill-rule:evenodd;stroke:#ffffff;stroke-width:0.529167;stroke-linecap:round;stroke-linejoin:round;stroke-miterlimit:4;stroke-dasharray:none;stroke-dashoffset:0;stroke-opacity:1" />
    <circle
       r="9.7219286"
       cy="138.60596"
       cx="87.690475"
       id="path4749"
       style="fill:#460082;fill-opacity:1;fill-rule:evenodd;stroke:#ffffff;stroke-width:0.529167;stroke-linecap:round;stroke-linejoin:round;stroke-miterlimit:4;stroke-dasharray:none;stroke-dashoffset:0;stroke-opacity:1" />
    <circle
       r="5.1239824"
       cy="138.60596"
       cx="87.690475"
       id="len-opened-2"
       style="fill:#460082;fill-opacity:1;fill-rule:evenodd;stroke:#ffffff;stroke-width:0.529167;stroke-linecap:round;stroke-linejoin:round;stroke-miterlimit:4;stroke-dasharray:none;stroke-dashoffset:0;stroke-opacity:1" />
    <ellipse
       ry="0.76839989"
       rx="0.8018086"
       cy="137.36984"
       cx="89.98436"
       id="path4761"
       style="fill:#460082;fill-opacity:1;fill-rule:evenodd;stroke:#ffffff;stroke-width:0.529167;stroke-linecap:round;stroke-linejoin:round;stroke-miterlimit:4;stroke-dasharray:none;stroke-dashoffset:0;stroke-opacity:1" />
    <rect
       ry="0.42151606"
       rx="0.41495404"
       y="120.72792"
       x="96.76683"
       height="3.72523"
       width="8.0124922"
       id="cam-btn"
       style="fill:#460082;fill-opacity:1;fill-rule:evenodd;stroke:#ffffff;stroke-width:0.529167;stroke-linecap:round;stroke-linejoin:round;stroke-miterlimit:4;stroke-dasharray:none;stroke-dashoffset:0;stroke-opacity:1" />
    <ellipse
       ry="1.6019861"
       rx="1.6162895"
       cy="129.20734"
       cx="100.77307"
       id="flash-light"
       style="fill:#460082;fill-opacity:1;fill-rule:evenodd;stroke:#ffffff;stroke-width:0.529167;stroke-linecap:round;stroke-linejoin:round;stroke-miterlimit:4;stroke-dasharray:none;stroke-dashoffset:0;stroke-opacity:1" />
    <g
       id="len-shutter">
      <path
         id="path2755-4-0-2"
         style="fill:#460082;fill-opacity:1;fill-rule:evenodd;stroke:#ffffff;stroke-width:0.529167;stroke-linecap:round;stroke-linejoin:round;stroke-miterlimit:4;stroke-dasharray:none"
         d="m 87.64844,138.63076 a 5.622396,5.622396 0 0 1 -5.16248,3.406 5.622396,5.622396 0 0 1 -5.16144,-3.40134 5.622396,5.622396 0 0 0 -0.46095,2.22053 5.622396,5.622396 0 0 0 5.62239,5.6224 5.622396,5.622396 0 0 0 5.6224,-5.6224 5.622396,5.622396 0 0 0 -0.45992,-2.22519 z" />
      <path
         id="path2755-4-0-2-6"
         style="fill:#460082;fill-opacity:1;fill-rule:evenodd;stroke:#ffffff;stroke-width:0.529167;stroke-linecap:round;stroke-linejoin:round;stroke-miterlimit:4;stroke-dasharray:none"
         d="m 87.64844,138.63076 a 5.622396,5.622396 0 0 1 -1.08778,6.08842 5.622396,5.622396 0 0 1 -6.02124,1.39791 5.622396,5.622396 0 0 0 1.29195,1.8639 5.622396,5.622396 0 0 0 7.94871,-0.20189 5.622396,5.622396 0 0 0 -0.2019,-7.94873 5.622396,5.622396 0 0 0 -1.92974,-1.19961 z" />
      <path
         id="path2755-4-0-2-0"
         style="fill:#460082;fill-opacity:1;fill-rule:evenodd;stroke:#ffffff;stroke-width:0.529167;stroke-linecap:round;stroke-linejoin:round;stroke-miterlimit:4;stroke-dasharray:none"
         d="m 87.64844,138.63072 a 5.622396,5.622396 0 0 1 3.60601,5.0248 5.622396,5.622396 0 0 1 -3.19612,5.29096 5.622396,5.622396 0 0 0 2.23691,0.37349 5.622396,5.622396 0 0 0 5.39737,-5.83876 5.622396,5.622396 0 0 0 -5.83875,-5.39735 5.622396,5.622396 0 0 0 -2.20542,0.5469 z" />
      <path
         id="path2755-4-0-2-64"
         style="fill:#460082;fill-opacity:1;fill-rule:evenodd;stroke:#ffffff;stroke-width:0.529167;stroke-linecap:round;stroke-linejoin:round;stroke-miterlimit:4;stroke-dasharray:none"
         d="m 87.64844,138.63068 a 5.622396,5.622396 0 0 1 -6.05597,-1.25594 5.622396,5.622396 0 0 1 -1.23066,-6.05764 5.622396,5.622396 0 0 0 -1.89895,1.23985 5.622396,5.622396 0 0 0 -0.0183,7.95125 5.622396,5.622396 0 0 0 7.95125,0.0183 5.622396,5.622396 0 0 0 1.2526,-1.89578 z" />
      <path
         id="path2755-4-0-2-2"
         style="fill:#460082;fill-opacity:1;fill-rule:evenodd;stroke:#ffffff;stroke-width:0.529167;stroke-linecap:round;stroke-linejoin:round;stroke-miterlimit:4;stroke-dasharray:none"
         d="m 87.64844,138.63076 a 5.622396,5.622396 0 0 1 -3.42612,-5.14915 5.622396,5.622396 0 0 1 3.38118,-5.17468 5.622396,5.622396 0 0 0 -2.22232,-0.45228 5.622396,5.622396 0 0 0 -5.60041,5.64429 5.622396,5.622396 0 0 0 5.64429,5.60042 5.622396,5.622396 0 0 0 2.22338,-0.4686 z" />
      <path
         id="path2755-4-0-2-01"
         style="fill:#460082;fill-opacity:1;fill-rule:evenodd;stroke:#ffffff;stroke-width:0.529167;stroke-linecap:round;stroke-linejoin:round;stroke-miterlimit:4;stroke-dasharray:none"
         d="m 87.64844,138.63068 a 5.622396,5.622396 0 0 1 0.92661,-6.11501 5.622396,5.622396 0 0 1 5.98222,-1.55643 5.622396,5.622396 0 0 0 -1.34072,-1.82913 5.622396,5.622396 0 0 0 -7.9406,0.41173 5.622396,5.622396 0 0 0 0.41174,7.9406 5.622396,5.622396 0 0 0 1.96075,1.14824 z" />
      <path
         id="path2755-4-0-2-23"
         style="fill:#460082;fill-opacity:1;fill-rule:evenodd;stroke:#ffffff;stroke-width:0.529167;stroke-linecap:round;stroke-linejoin:round;stroke-miterlimit:4;stroke-dasharray:none"
         d="m 87.64848,138.63068 a 5.622396,5.622396 0 0 1 4.92064,-3.7469 5.622396,5.622396 0 0 1 5.37938,3.04494 5.622396,5.622396 0 0 0 0.30988,-2.24659 5.622396,5.622396 0 0 0 -5.9893,-5.22981 5.622396,5.622396 0 0 0 -5.22981,5.98931 5.622396,5.622396 0 0 0 0.60917,2.18905 z" />
      <path
         id="path2755-4-0-2-67"
         style="fill:#460082;fill-opacity:1;fill-rule:evenodd;stroke:#ffffff;stroke-width:0.529167;stroke-linecap:round;stroke-linejoin:round;stroke-miterlimit:4;stroke-dasharray:none"
         d="m 87.64848,138.63068 a 5.622396,5.622396 0 0 1 6.10385,0.99763 5.622396,5.622396 0 0 1 1.48678,5.99993 5.622396,5.622396 0 0 0 1.84458,-1.31937 5.622396,5.622396 0 0 0 -0.31936,-7.94486 5.622396,5.622396 0 0 0 -7.94485,0.31936 5.622396,5.622396 0 0 0 -1.17096,1.94726 z" />
    </g>
  </g>
</svg>
