<?xml version="1.0" encoding="UTF-8" standalone="no"?>
<!-- Created with Inkscape (http://www.inkscape.org/) -->

<svg
   xmlns:dc="http://purl.org/dc/elements/1.1/"
   xmlns:cc="http://creativecommons.org/ns#"
   xmlns:rdf="http://www.w3.org/1999/02/22-rdf-syntax-ns#"
   xmlns:svg="http://www.w3.org/2000/svg"
   xmlns="http://www.w3.org/2000/svg"
   xmlns:sodipodi="http://sodipodi.sourceforge.net/DTD/sodipodi-0.dtd"
   xmlns:inkscape="http://www.inkscape.org/namespaces/inkscape"
   width="5214.9424mm"
   height="793.263mm"
   viewBox="0 0 5214.9424 793.263"
   version="1.1"
   id="svg6682"
   inkscape:version="0.92.4 (5da689c313, 2019-01-14)"
   sodipodi:docname="cityfar.svg">
  <defs
     id="defs6676" />
  <sodipodi:namedview
     id="base"
     pagecolor="#ffffff"
     bordercolor="#666666"
     borderopacity="1.0"
     inkscape:pageopacity="0.0"
     inkscape:pageshadow="2"
     inkscape:zoom="0.061871843"
     inkscape:cx="9774.227"
     inkscape:cy="-195.91743"
     inkscape:document-units="mm"
     inkscape:current-layer="layer1"
     showgrid="false"
     fit-margin-top="0"
     fit-margin-left="0"
     fit-margin-right="0"
     fit-margin-bottom="0"
     inkscape:window-width="1920"
     inkscape:window-height="1017"
     inkscape:window-x="-8"
     inkscape:window-y="-8"
     inkscape:window-maximized="1" />
  <metadata
     id="metadata6679">
    <rdf:RDF>
      <cc:Work
         rdf:about="">
        <dc:format>image/svg+xml</dc:format>
        <dc:type
           rdf:resource="http://purl.org/dc/dcmitype/StillImage" />
        <dc:title></dc:title>
      </cc:Work>
    </rdf:RDF>
  </metadata>
  <g
     inkscape:label="Layer 1"
     inkscape:groupmode="layer"
     id="layer1"
     transform="translate(3862.1303,251.82143)">
    <path
       style="opacity:1;fill:#2d1650;fill-opacity:1;fill-rule:evenodd;stroke:none;stroke-width:1.26961231;stroke-linecap:round;stroke-linejoin:round;stroke-miterlimit:4;stroke-dasharray:none;stroke-dashoffset:0;stroke-opacity:1"
       d="m -809.97629,-250.79653 c -0.411,0 -0.74192,0.5611 -0.74192,1.258 v 590.11051 c 0,-0.6968 -0.33078,-1.2579 -0.7416,-1.2579 h -68.87178 c -0.411,0 -0.74171,0.5611 -0.74171,1.2579 v -195.9611 c 0,-0.69691 -0.33099,-1.2577 -0.74199,-1.2577 H -1011.66 c -0.4109,0 -0.7417,0.56079 -0.7417,1.2577 v 196.9925 c 0,-0.69691 -0.3307,-1.25801 -0.7416,-1.25801 h -129.8447 c -0.411,0 -0.7418,0.5611 -0.7418,1.25801 v 198.58046 c 0,0.69688 0.3308,1.25772 0.7418,1.25772 h 129.8447 c 0.4109,0 0.7416,-0.56084 0.7416,-1.25772 0,0.69688 0.3308,1.25772 0.7417,1.25772 h 129.84471 c 0.411,0 0.74199,-0.56084 0.74199,-1.25772 0,0.69688 0.33071,1.25772 0.74171,1.25772 h 68.87178 c 0.41082,0 0.7416,-0.56084 0.7416,-1.25772 0,0.69688 0.33092,1.25772 0.74192,1.25772 h 53.6538 37.72559 c 0.41021,0 0.74041,-0.55872 0.7417,-1.25375 0,0.69503 0.3315,1.25375 0.74171,1.25375 h 172.6347 c 0.0259,0 0.051,-0.003 0.076,-0.006 0.075,-0.013 0.14671,-0.0444 0.2132,-0.092 0.022,-0.0159 0.044,-0.0335 0.065,-0.0528 0.1262,-0.11591 0.23,-0.29194 0.29839,-0.50586 0.023,-0.0713 0.042,-0.147 0.056,-0.2259 0.022,-0.11829 0.033,-0.24402 0.033,-0.37467 V 121.91386 -136.36153 c 0,-0.6969 -0.3307,-1.258 -0.74171,-1.258 h -53.6539 c -0.411,0 -0.74168,0.5611 -0.74168,1.258 v 257.0174 H -717.1136 c -0.411,0 -0.7417,0.56111 -0.7417,1.25799 v 89.95291 c 0,-0.69299 -0.3324,-1.2497 -0.74168,-1.2497 h -36.98362 v -460.1556 c 0,-0.6969 -0.3311,-1.258 -0.742,-1.258 z m 946.04249,89.96121 c -0.411,0 -0.7417,0.5611 -0.7417,1.25799 V 49.364664 c 0,-0.69688 -0.3307,-1.25799 -0.7417,-1.25799 H -29.346295 c -0.4108,0 -0.7415,0.56111 -0.7415,1.25799 V 200.26696 c 0,-0.69688 -0.3308,-1.25788 -0.7417,-1.25788 H -116.4054 c -0.4109,0 -0.7417,0.561 -0.7417,1.25788 V 20.344874 c 0,-0.69688 -0.3307,-1.25799 -0.7417,-1.25799 h -102.9876 c -0.4109,0 -0.7417,0.56111 -0.7417,1.25799 V 226.38478 c 0,-0.69692 -0.3308,-1.25791 -0.7416,-1.25791 h -120.39949 c -0.41079,0 -0.74171,0.56099 -0.74171,1.25791 v 84.15721 c 0,-0.69691 -0.3307,-1.25802 -0.7416,-1.25802 h -198.75259 c -0.411,0 -0.7417,0.56111 -0.7417,1.25802 v 229.64185 c 0,0.69688 0.3307,1.25772 0.7417,1.25772 h 198.75259 c 0.4109,0 0.7416,-0.56084 0.7416,-1.25772 0,0.69688 0.33092,1.25772 0.74171,1.25772 h 120.39949 c 0.4108,0 0.7416,-0.56084 0.7416,-1.25772 0,0.69688 0.3308,1.25772 0.7417,1.25772 h 102.9876 c 0.411,0 0.7417,-0.56084 0.7417,-1.25772 0,0.69688 0.3308,1.25772 0.7417,1.25772 h 85.575905 c 0.4109,0 0.7417,-0.56084 0.7417,-1.25772 0,0.69688 0.3307,1.25772 0.7415,1.25772 H 134.5828 c 0.411,0 0.7417,-0.56084 0.7417,-1.25772 0,0.69688 0.3307,1.25772 0.7417,1.25772 h 158.125 c 0.411,0 0.7417,-0.56084 0.7417,-1.25772 0,0.69688 0.331,1.25772 0.7418,1.25772 h 85.5757 c 0.4101,0 0.7403,-0.55859 0.7417,-1.25349 0,0.6949 0.3315,1.25349 0.7416,1.25349 h 108.7914 c 0.411,0 0.7417,-0.56084 0.7417,-1.25772 0,0.69688 0.3308,1.25772 0.7418,1.25772 h 65.262 c 0.4109,0 0.7417,-0.56084 0.7417,-1.25772 0,0.69688 0.3307,1.25772 0.7416,1.25772 h 123.3012 c 0.4109,0 0.742,-0.56084 0.742,-1.25772 0,0.69688 0.3307,1.25772 0.7416,1.25772 h 123.3016 c 0.41,0 0.7402,-0.55859 0.7416,-1.25349 0,0.6949 0.3315,1.25349 0.7416,1.25349 h 155.2227 c 0.411,0 0.742,-0.56084 0.742,-1.25772 0,0.69688 0.3307,1.25772 0.7417,1.25772 h 172.6347 c 0.411,0 0.7416,-0.56084 0.7416,-1.25772 0,0.69688 0.3311,1.25772 0.7421,1.25772 h 113.4286 c 0.1284,0 0.2489,-0.0547 0.3541,-0.15126 0.063,-0.058 0.1204,-0.13097 0.1708,-0.21624 0.017,-0.0284 0.033,-0.0582 0.048,-0.0893 0.03,-0.0621 0.057,-0.12904 0.08,-0.20037 0.023,-0.0713 0.042,-0.147 0.056,-0.2259 0.014,-0.0789 0.025,-0.16095 0.03,-0.24572 0,-0.0424 0,-0.0854 0,-0.12896 0,0.69689 0.331,1.25772 0.742,1.25772 h 97.0125 c 0.4109,0 0.7417,-0.56083 0.7417,-1.25772 V 226.69098 c 0,-0.69691 -0.3308,-1.25791 -0.7417,-1.25791 h -97.0125 c -0.411,0 -0.742,0.561 -0.742,1.25791 v 4.10419 c 0,-0.69689 -0.3307,-1.25799 -0.7416,-1.25799 h -23.1407 c -0.411,0 -0.7417,0.5611 -0.7417,1.25799 v 158.79821 h -89.5462 c -0.411,0 -0.7421,0.5611 -0.7421,1.25798 V 208.97297 c 0,-0.69689 -0.3306,-1.25791 -0.7416,-1.25791 H 966.0272 c -0.411,0 -0.7417,0.56102 -0.7417,1.25791 V -75.420126 c 0,-0.6969 -0.331,-1.258 -0.742,-1.258 H 809.3208 c -0.4109,0 -0.7419,0.5611 -0.7419,1.258 V 148.02297 c 0,-0.69278 -0.3322,-1.24931 -0.7413,-1.24931 H 684.536 c -0.411,0 -0.7416,0.5611 -0.7416,1.25802 v 171.21611 c 0,-0.69692 -0.3311,-1.25802 -0.7421,-1.25802 H 559.7512 c -0.4109,0 -0.7416,0.5611 -0.7416,1.25802 v -2.90201 c 0,-0.69691 -0.3308,-1.25769 -0.7417,-1.25769 h -65.262 c -0.411,0 -0.7418,0.56078 -0.7418,1.25769 V -89.929926 c 0,-0.6969 -0.3307,-1.2579 -0.7417,-1.2579 H 382.731 c -0.4108,0 -0.7418,0.561 -0.7418,1.2579 V 226.37607 c 0,-0.69278 -0.3323,-1.2492 -0.7415,-1.2492 H 295.672 c -0.4108,0 -0.7418,0.56099 -0.7418,1.25791 v -385.96211 c 0,-0.69689 -0.3307,-1.25799 -0.7417,-1.25799 z m -1389.8627,583.2609 c -0.4109,0 -0.7417,0.56081 -0.7417,1.25769 v 116.50057 c 0,0.69688 0.3308,1.25772 0.7417,1.25772 h 109.3248 c 0.411,0 0.7417,-0.56084 0.7417,-1.25772 V 423.68327 c 0,-0.69688 -0.3307,-1.25769 -0.7417,-1.25769 z"
       id="rect3770"
       inkscape:connector-curvature="0" />
    <path
       style="opacity:1;fill:#2d1650;fill-opacity:1;fill-rule:evenodd;stroke:none;stroke-width:1.26961231;stroke-linecap:round;stroke-linejoin:round;stroke-miterlimit:4;stroke-dasharray:none;stroke-dashoffset:0;stroke-opacity:1"
       d="m -3416.51,-250.79653 c -0.411,0 -0.7419,0.5611 -0.7419,1.258 v 590.11051 c 0,-0.6968 -0.3308,-1.2579 -0.7416,-1.2579 h -68.8718 c -0.411,0 -0.7417,0.5611 -0.7417,1.2579 v -195.9611 c 0,-0.69691 -0.331,-1.2577 -0.742,-1.2577 h -129.8447 c -0.4109,0 -0.7417,0.56079 -0.7417,1.2577 v 196.9925 c 0,-0.69691 -0.3307,-1.25801 -0.7416,-1.25801 h -129.8447 c -0.411,0 -0.7418,0.5611 -0.7418,1.25801 v 198.58046 c 0,0.69688 0.3308,1.25772 0.7418,1.25772 h 129.8447 c 0.4109,0 0.7416,-0.56084 0.7416,-1.25772 0,0.69688 0.3308,1.25772 0.7417,1.25772 h 129.8447 c 0.411,0 0.742,-0.56084 0.742,-1.25772 0,0.69688 0.3307,1.25772 0.7417,1.25772 h 68.8718 c 0.4108,0 0.7416,-0.56084 0.7416,-1.25772 0,0.69688 0.3309,1.25772 0.7419,1.25772 h 53.6538 37.7256 c 0.4102,0 0.7404,-0.55872 0.7417,-1.25375 0,0.69503 0.3315,1.25375 0.7417,1.25375 h 172.6347 c 0.026,0 0.051,-0.003 0.076,-0.006 0.075,-0.013 0.1468,-0.0444 0.2132,-0.092 0.022,-0.0159 0.044,-0.0335 0.065,-0.0528 0.1262,-0.11592 0.23,-0.29195 0.2984,-0.50586 0.023,-0.0713 0.042,-0.147 0.056,-0.2259 0.022,-0.1183 0.033,-0.24403 0.033,-0.37468 v -418.2704 -258.2754 c 0,-0.6969 -0.3307,-1.258 -0.7417,-1.258 h -53.6539 c -0.411,0 -0.7417,0.5611 -0.7417,1.258 v 257.01741 h -118.2391 c -0.411,0 -0.7417,0.56111 -0.7417,1.25799 v 89.95291 c 0,-0.69299 -0.3324,-1.2497 -0.7416,-1.2497 h -36.9837 v -460.1556 c 0,-0.6969 -0.3311,-1.258 -0.742,-1.258 z m 946.0425,89.9612 c -0.411,0 -0.7417,0.5611 -0.7417,1.25799 V 49.364617 c 0,-0.69689 -0.3307,-1.25799 -0.7416,-1.25799 H -2635.88 c -0.4107,0 -0.7414,0.5611 -0.7414,1.25799 V 200.26696 c 0,-0.69688 -0.3309,-1.25788 -0.7418,-1.25788 h -85.5759 c -0.4109,0 -0.7416,0.561 -0.7416,1.25788 V 20.344827 c 0,-0.69689 -0.3307,-1.25799 -0.7417,-1.25799 h -102.9877 c -0.4109,0 -0.7417,0.5611 -0.7417,1.25799 V 226.38478 c 0,-0.69692 -0.3307,-1.25791 -0.7416,-1.25791 h -120.3995 c -0.4107,0 -0.7417,0.56099 -0.7417,1.25791 v 84.15721 c 0,-0.69691 -0.3307,-1.25802 -0.7416,-1.25802 h -198.7526 c -0.411,0 -0.7417,0.56111 -0.7417,1.25802 v 229.64185 c 0,0.69688 0.3307,1.25772 0.7417,1.25772 h 198.7526 c 0.4109,0 0.7416,-0.56084 0.7416,-1.25772 0,0.69688 0.331,1.25772 0.7417,1.25772 h 120.3995 c 0.4109,0 0.7416,-0.56084 0.7416,-1.25772 0,0.69688 0.3308,1.25772 0.7417,1.25772 h 102.9877 c 0.411,0 0.7417,-0.56084 0.7417,-1.25772 0,0.69688 0.3307,1.25772 0.7416,1.25772 h 85.5759 c 0.4109,0 0.7418,-0.56084 0.7418,-1.25772 0,0.69688 0.3307,1.25772 0.7414,1.25772 h 163.9292 c 0.4109,0 0.7416,-0.56084 0.7416,-1.25772 0,0.69688 0.3307,1.25772 0.7417,1.25772 h 158.125 c 0.4111,0 0.7418,-0.56084 0.7418,-1.25772 0,0.69688 0.3309,1.25772 0.7417,1.25772 h 85.5758 c 0.41,0 0.7402,-0.55859 0.7416,-1.25349 0,0.6949 0.3316,1.25349 0.7416,1.25349 h 108.7914 c 0.411,0 0.7418,-0.56084 0.7418,-1.25772 0,0.69688 0.3308,1.25772 0.7418,1.25772 h 65.262 c 0.4109,0 0.7417,-0.56084 0.7417,-1.25772 0,0.69688 0.3307,1.25772 0.7416,1.25772 h 123.3012 c 0.4109,0 0.742,-0.56084 0.742,-1.25772 0,0.69688 0.3307,1.25772 0.7416,1.25772 h 123.3016 c 0.41,0 0.7402,-0.55859 0.7416,-1.25349 0,0.6949 0.3315,1.25349 0.7416,1.25349 h 155.2226 c 0.4111,0 0.742,-0.56084 0.742,-1.25772 0,0.69688 0.3307,1.25772 0.7418,1.25772 h 172.6346 c 0.411,0 0.7416,-0.56084 0.7416,-1.25772 0,0.69688 0.3311,1.25772 0.7421,1.25772 h 113.4286 c 0.1284,0 0.2489,-0.0547 0.3541,-0.15126 0.063,-0.058 0.1204,-0.13097 0.1708,-0.21622 0.017,-0.0284 0.033,-0.0582 0.048,-0.0893 0.03,-0.0621 0.057,-0.12904 0.08,-0.20037 0.023,-0.0713 0.042,-0.147 0.056,-0.2259 0.014,-0.0789 0.025,-0.16095 0.03,-0.24572 0,-0.0424 0,-0.0854 0,-0.12896 0,0.69689 0.331,1.25772 0.742,1.25772 h 97.0125 c 0.4109,0 0.7417,-0.56083 0.7417,-1.25772 V 226.69098 c 0,-0.69691 -0.3308,-1.25791 -0.7417,-1.25791 h -97.0125 c -0.411,0 -0.742,0.561 -0.742,1.25791 v 4.10419 c 0,-0.69689 -0.3307,-1.25799 -0.7416,-1.25799 h -23.1407 c -0.411,0 -0.7417,0.5611 -0.7417,1.25799 v 158.79821 h -89.5462 c -0.411,0 -0.7421,0.5611 -0.7421,1.25798 V 208.97297 c 0,-0.69689 -0.3306,-1.25791 -0.7416,-1.25791 h -172.6346 c -0.411,0 -0.7418,0.56102 -0.7418,1.25791 V -75.42017 c 0,-0.696899 -0.3309,-1.258001 -0.7419,-1.258001 h -155.2227 c -0.411,0 -0.7419,0.561102 -0.7419,1.258001 v 223.44314 c 0,-0.69278 -0.3322,-1.24931 -0.7413,-1.24931 h -123.3016 c -0.411,0 -0.7416,0.5611 -0.7416,1.25802 v 171.21611 c 0,-0.69692 -0.3311,-1.25802 -0.7421,-1.25802 h -123.3011 c -0.4109,0 -0.7416,0.5611 -0.7416,1.25802 v -2.90201 c 0,-0.69691 -0.3308,-1.25769 -0.7417,-1.25769 h -65.262 c -0.411,0 -0.7418,0.56078 -0.7418,1.25769 V -89.92997 c 0,-0.696899 -0.3308,-1.257901 -0.7418,-1.257901 h -108.7914 c -0.4107,0 -0.7417,0.561002 -0.7417,1.257901 v 316.30604 c 0,-0.69278 -0.3324,-1.2492 -0.7415,-1.2492 h -85.5758 c -0.4108,0 -0.7417,0.56099 -0.7417,1.25791 v -385.96212 c 0,-0.69689 -0.3307,-1.25799 -0.7418,-1.25799 z m -1389.8627,583.26091 c -0.4109,0 -0.7417,0.56081 -0.7417,1.25769 v 116.50057 c 0,0.69688 0.3308,1.25772 0.7417,1.25772 h 109.3248 c 0.411,0 0.7417,-0.56084 0.7417,-1.25772 V 423.68327 c 0,-0.69688 -0.3307,-1.25769 -0.7417,-1.25769 z"
       id="rect3770-9"
       inkscape:connector-curvature="0" />
  </g>
</svg>
