<?xml version="1.0" encoding="UTF-8" standalone="no"?>
<!-- Created with Inkscape (http://www.inkscape.org/) -->

<svg
   xmlns:dc="http://purl.org/dc/elements/1.1/"
   xmlns:cc="http://creativecommons.org/ns#"
   xmlns:rdf="http://www.w3.org/1999/02/22-rdf-syntax-ns#"
   xmlns:svg="http://www.w3.org/2000/svg"
   xmlns="http://www.w3.org/2000/svg"
   xmlns:sodipodi="http://sodipodi.sourceforge.net/DTD/sodipodi-0.dtd"
   xmlns:inkscape="http://www.inkscape.org/namespaces/inkscape"
   width="116.22813mm"
   height="71.702171mm"
   viewBox="0 0 116.22812 71.70217"
   version="1.1"
   id="svg1270"
   inkscape:version="0.92.4 (5da689c313, 2019-01-14)"
   sodipodi:docname="cloud2.svg">
  <defs
     id="defs1264" />
  <sodipodi:namedview
     id="base"
     pagecolor="#ffffff"
     bordercolor="#666666"
     borderopacity="1.0"
     inkscape:pageopacity="0.0"
     inkscape:pageshadow="2"
     inkscape:zoom="0.35"
     inkscape:cx="-286.30456"
     inkscape:cy="185.78557"
     inkscape:document-units="mm"
     inkscape:current-layer="layer1"
     showgrid="false"
     fit-margin-top="0"
     fit-margin-left="0"
     fit-margin-right="0"
     fit-margin-bottom="0"
     inkscape:window-width="1920"
     inkscape:window-height="1017"
     inkscape:window-x="-8"
     inkscape:window-y="-8"
     inkscape:window-maximized="1" />
  <metadata
     id="metadata1267">
    <rdf:RDF>
      <cc:Work
         rdf:about="">
        <dc:format>image/svg+xml</dc:format>
        <dc:type
           rdf:resource="http://purl.org/dc/dcmitype/StillImage" />
        <dc:title></dc:title>
      </cc:Work>
    </rdf:RDF>
  </metadata>
  <g
     inkscape:label="Layer 1"
     inkscape:groupmode="layer"
     id="layer1"
     transform="translate(-48.915105,-126.28693)">
    <path
       style="opacity:1;fill:#000000;fill-opacity:1;fill-rule:evenodd;stroke:#000000;stroke-width:1.32300007;stroke-linecap:round;stroke-linejoin:round;stroke-miterlimit:4;stroke-dasharray:none;stroke-dashoffset:0;stroke-opacity:1"
       d="m 107.78493,126.94843 a 29.482142,28.726188 0 0 0 -29.406465,27.25364 24.946428,20.032737 0 0 0 -3.85506,-0.26614 24.946428,20.032737 0 0 0 -24.9468,20.03289 24.946428,20.032737 0 0 0 24.9468,20.03289 24.946428,20.032737 0 0 0 14.95464,-4.02405 24.946428,20.032737 0 0 0 19.289775,7.34994 24.946428,20.032737 0 0 0 18.82314,-6.90604 24.946428,20.032737 0 0 0 11.94397,2.44585 24.946428,20.032737 0 0 0 24.9468,-20.03237 24.946428,20.032737 0 0 0 -24.9468,-20.03289 24.946428,20.032737 0 0 0 -2.43189,0.11524 29.482142,28.726188 0 0 0 -29.31811,-25.96896 z"
       id="path22"
       inkscape:connector-curvature="0" />
  </g>
</svg>
