<?xml version="1.0" encoding="UTF-8" standalone="no"?>
<!-- Created with Inkscape (http://www.inkscape.org/) -->

<svg
   width="6.8029819mm"
   height="19.78664mm"
   viewBox="0 0 6.8029819 19.78664"
   version="1.1"
   id="svg22183"
   inkscape:version="1.1.1 (3bf5ae0d25, 2021-09-20)"
   sodipodi:docname="flower.svg"
   xmlns:inkscape="http://www.inkscape.org/namespaces/inkscape"
   xmlns:sodipodi="http://sodipodi.sourceforge.net/DTD/sodipodi-0.dtd"
   xmlns="http://www.w3.org/2000/svg"
   xmlns:svg="http://www.w3.org/2000/svg">
  <sodipodi:namedview
     id="namedview22185"
     pagecolor="#ffffff"
     bordercolor="#666666"
     borderopacity="1.0"
     inkscape:pageshadow="2"
     inkscape:pageopacity="0.0"
     inkscape:pagecheckerboard="0"
     inkscape:document-units="mm"
     showgrid="false"
     fit-margin-top="0"
     fit-margin-left="0"
     fit-margin-right="0"
     fit-margin-bottom="0"
     inkscape:zoom="7.5087439"
     inkscape:cx="-34.826065"
     inkscape:cy="-0.5993013"
     inkscape:window-width="1920"
     inkscape:window-height="1017"
     inkscape:window-x="-8"
     inkscape:window-y="-8"
     inkscape:window-maximized="1"
     inkscape:current-layer="layer1" />
  <defs
     id="defs22180" />
  <g
     inkscape:label="Layer 1"
     inkscape:groupmode="layer"
     id="layer1"
     transform="translate(-103.35434,-123.77775)">
    <path
       style="fill:none;stroke:#4b0082;stroke-width:0.264583px;stroke-linecap:butt;stroke-linejoin:miter;stroke-opacity:1"
       d="m 107.75722,127.50999 c 0,0 0.88661,-2.23187 1.51126,-3.19763 0.81231,-1.25596 2.16511,-2.03869 2.98497,-1.27627 0.81986,0.76243 0.23277,1.80586 -0.68128,2.69012 -0.91404,0.88426 -3.81495,1.78378 -3.81495,1.78378 z"
       id="pedal-2-l"
       sodipodi:nodetypes="cszzc" />
    <path
       style="fill:none;stroke:#4b0082;stroke-width:0.264583px;stroke-linecap:butt;stroke-linejoin:miter;stroke-opacity:1"
       d="m 106.863,127.74947 c 0,0 2.24907,0.84202 3.22707,1.44734 1.27187,0.78717 2.08136,2.12412 1.3354,2.95899 -0.74597,0.83487 -1.80088,0.26865 -2.70314,-0.62763 -0.90227,-0.89626 -1.85933,-3.7787 -1.85933,-3.7787 z"
       id="pedal-3-l"
       sodipodi:nodetypes="cszzc" />
    <path
       style="fill:none;stroke:#4b0082;stroke-width:0.264583px;stroke-linecap:butt;stroke-linejoin:miter;stroke-opacity:1"
       d="m 106.82227,126.75327 c 0,0 -1.15889,-2.10341 -1.50712,-3.19959 -0.45288,-1.42555 -0.19687,-2.96736 0.91289,-3.11537 1.10976,-0.14802 1.54182,0.96856 1.64312,2.23629 0.10133,1.26772 -1.04889,4.07867 -1.04889,4.07867 z"
       id="pedal-1-l"
       sodipodi:nodetypes="cszzc" />
    <path
       style="fill:none;stroke:#4b0082;stroke-width:0.264583px;stroke-linecap:butt;stroke-linejoin:miter;stroke-opacity:1"
       d="m 105.807,127.1517 c 0,0 -2.35281,-0.48132 -3.41316,-0.92686 -1.37898,-0.5794 -2.3869,-1.77389 -1.78012,-2.71479 0.60678,-0.94091 1.73702,-0.54596 2.76791,0.19879 1.0309,0.74474 2.42537,3.44286 2.42537,3.44286 z"
       id="pedal-5-l"
       sodipodi:nodetypes="cszzc" />
    <path
       style="fill:none;stroke:#4b0082;stroke-width:0.264583px;stroke-linecap:butt;stroke-linejoin:miter;stroke-opacity:1"
       d="m 106.68141,127.99124 c 0,0 -1.11165,2.12874 -1.8324,3.02507 -0.93731,1.16564 -2.36348,1.80496 -3.1005,0.96218 -0.73702,-0.84277 -0.0456,-1.82023 0.95459,-2.60568 1.00022,-0.78547 3.97831,-1.38157 3.97831,-1.38157 z"
       id="pedal-4-l"
       sodipodi:nodetypes="cszzc" />
    <path
       style="fill:none;stroke:#4b0082;stroke-width:0.264583;stroke-linecap:butt;stroke-linejoin:miter;stroke-miterlimit:4;stroke-dasharray:none;stroke-opacity:1"
       d="m 108.6986,126.52883 c -0.28584,-0.34398 -0.0169,-0.57897 0.20483,-0.79235 0.21024,-0.20228 0.78306,-0.47662 1.00037,-0.27044 0.21732,0.20618 -0.0323,0.66106 -0.28785,0.88506 -0.25557,0.224 -0.7157,0.42041 -0.91735,0.17773 z"
       id="pedal-2-s"
       sodipodi:nodetypes="sszzs" />
    <path
       style="fill:none;stroke:#4b0082;stroke-width:0.264583;stroke-linecap:butt;stroke-linejoin:miter;stroke-miterlimit:4;stroke-dasharray:none;stroke-opacity:1"
       d="m 105.51172,128.69686 c 0.32234,0.31005 0.0812,0.5735 -0.1154,0.81022 -0.18643,0.22442 -0.72517,0.56078 -0.96407,0.38006 -0.23891,-0.18072 -0.0415,-0.66055 0.1876,-0.91159 0.22906,-0.25104 0.66447,-0.49743 0.89187,-0.27869 z"
       id="pedal-4-s"
       sodipodi:nodetypes="sszzs" />
    <path
       style="fill:none;stroke:#4b0082;stroke-width:0.264583;stroke-linecap:butt;stroke-linejoin:miter;stroke-miterlimit:4;stroke-dasharray:none;stroke-opacity:1"
       d="m 104.97877,126.20152 c -0.25221,0.36935 -0.55205,0.17532 -0.81813,0.0207 -0.25227,-0.14657 -0.67343,-0.62197 -0.5349,-0.88757 0.13853,-0.2656 0.64449,-0.15062 0.93009,0.0336 0.2856,0.18418 0.60087,0.57264 0.42293,0.8332 z"
       id="pedal-5-s"
       sodipodi:nodetypes="sszzs" />
    <path
       style="fill:none;stroke:#4b0082;stroke-width:0.264583;stroke-linecap:butt;stroke-linejoin:miter;stroke-miterlimit:4;stroke-dasharray:none;stroke-opacity:1"
       d="m 107.93443,128.99384 c 0.25886,-0.36473 0.55514,-0.16529 0.81838,-0.006 0.24956,0.15111 0.66205,0.63407 0.51872,0.89711 -0.14332,0.26305 -0.64711,0.13891 -0.92933,-0.0505 -0.28221,-0.18932 -0.59039,-0.58343 -0.40776,-0.84072 z"
       id="pedal-3-s"
       sodipodi:nodetypes="sszzs" />
    <path
       style="fill:none;stroke:#4b0082;stroke-width:0.264583;stroke-linecap:butt;stroke-linejoin:miter;stroke-miterlimit:4;stroke-dasharray:none;stroke-opacity:1"
       d="m 106.77781,125.43306 c -0.44687,0.0183 -0.47033,-0.33807 -0.50529,-0.64379 -0.0331,-0.28986 0.0966,-0.91159 0.39241,-0.95911 0.29577,-0.0475 0.50572,0.42697 0.52855,0.76605 0.0228,0.33907 -0.10041,0.82394 -0.41567,0.83685 z"
       id="pedal-1-s"
       sodipodi:nodetypes="sszzs" />
    <path
       style="fill:#4b0082;fill-opacity:1;stroke:#4b0082;stroke-width:0.264583;stroke-linecap:butt;stroke-linejoin:miter;stroke-miterlimit:4;stroke-dasharray:none;stroke-opacity:1"
       d="M 106.863,143.56439 V 127.74947 Z"
       id="flower-body" />
    <circle
       style="fill:#4b0082;fill-opacity:1;fill-rule:evenodd;stroke:#4b0082;stroke-width:0.264583;stroke-linecap:round;stroke-linejoin:round;stroke-miterlimit:4;stroke-dasharray:none;stroke-opacity:1"
       id="flower-core"
       cx="106.84027"
       cy="127.26925"
       r="2.3619854" />
  </g>
</svg>
