<?xml version="1.0" encoding="UTF-8" standalone="no"?>
<!-- Created with Inkscape (http://www.inkscape.org/) -->

<svg
   xmlns:dc="http://purl.org/dc/elements/1.1/"
   xmlns:cc="http://creativecommons.org/ns#"
   xmlns:rdf="http://www.w3.org/1999/02/22-rdf-syntax-ns#"
   xmlns:svg="http://www.w3.org/2000/svg"
   xmlns="http://www.w3.org/2000/svg"
   xmlns:sodipodi="http://sodipodi.sourceforge.net/DTD/sodipodi-0.dtd"
   xmlns:inkscape="http://www.inkscape.org/namespaces/inkscape"
   width="75.574196mm"
   height="80.181152mm"
   viewBox="0 0 75.574196 80.181152"
   version="1.1"
   id="svg1198"
   inkscape:version="0.92.4 (5da689c313, 2019-01-14)"
   sodipodi:docname="moon filled.svg">
  <defs
     id="defs1192" />
  <sodipodi:namedview
     id="base"
     pagecolor="#ffffff"
     bordercolor="#666666"
     borderopacity="1.0"
     inkscape:pageopacity="0.0"
     inkscape:pageshadow="2"
     inkscape:zoom="0.35"
     inkscape:cx="-310.03976"
     inkscape:cy="217.23771"
     inkscape:document-units="mm"
     inkscape:current-layer="layer1"
     showgrid="false"
     fit-margin-top="0"
     fit-margin-left="0"
     fit-margin-right="0"
     fit-margin-bottom="0"
     inkscape:window-width="1920"
     inkscape:window-height="1017"
     inkscape:window-x="-8"
     inkscape:window-y="-8"
     inkscape:window-maximized="1" />
  <metadata
     id="metadata1195">
    <rdf:RDF>
      <cc:Work
         rdf:about="">
        <dc:format>image/svg+xml</dc:format>
        <dc:type
           rdf:resource="http://purl.org/dc/dcmitype/StillImage" />
        <dc:title></dc:title>
      </cc:Work>
    </rdf:RDF>
  </metadata>
  <g
     inkscape:label="Layer 1"
     inkscape:groupmode="layer"
     id="layer1"
     transform="translate(-55.195043,-126.12966)">
    <path
       style="opacity:1;fill:#ffff00;fill-opacity:1;fill-rule:evenodd;stroke:none;stroke-width:3.46270227;stroke-linecap:round;stroke-linejoin:round;stroke-miterlimit:4;stroke-dasharray:none;stroke-dashoffset:0;stroke-opacity:1"
       d="m 95.552785,126.12966 a 40.3577,40.090429 0 0 0 -40.357742,40.09057 40.3577,40.090429 0 0 0 40.357742,40.09058 40.3577,40.090429 0 0 0 35.216455,-20.54448 26.775391,25.572679 0 0 1 -17.22272,6.0265 26.775391,25.572679 0 0 1 -26.77511,-25.5726 26.775391,25.572679 0 0 1 26.77511,-25.5726 26.775391,25.572679 0 0 1 17.1297,5.92729 40.3577,40.090429 0 0 0 -35.123435,-20.44526 z"
       id="path1173"
       inkscape:connector-curvature="0" />
  </g>
</svg>
