<?xml version="1.0" encoding="UTF-8" standalone="no"?>
<!-- Created with Inkscape (http://www.inkscape.org/) -->

<svg
   xmlns:dc="http://purl.org/dc/elements/1.1/"
   xmlns:cc="http://creativecommons.org/ns#"
   xmlns:rdf="http://www.w3.org/1999/02/22-rdf-syntax-ns#"
   xmlns:svg="http://www.w3.org/2000/svg"
   xmlns="http://www.w3.org/2000/svg"
   xmlns:sodipodi="http://sodipodi.sourceforge.net/DTD/sodipodi-0.dtd"
   xmlns:inkscape="http://www.inkscape.org/namespaces/inkscape"
   width="3676.8081mm"
   height="232.88744mm"
   viewBox="0 0 3676.8082 232.88744"
   version="1.1"
   id="svg1890"
   inkscape:version="0.92.4 (5da689c313, 2019-01-14)"
   sodipodi:docname="moutaint.svg">
  <defs
     id="defs1884" />
  <sodipodi:namedview
     id="base"
     pagecolor="#ffffff"
     bordercolor="#666666"
     borderopacity="1.0"
     inkscape:pageopacity="0.0"
     inkscape:pageshadow="2"
     inkscape:zoom="0.0875"
     inkscape:cx="5602.2514"
     inkscape:cy="778.35979"
     inkscape:document-units="mm"
     inkscape:current-layer="layer1"
     showgrid="false"
     fit-margin-top="0"
     fit-margin-left="0"
     fit-margin-right="0"
     fit-margin-bottom="0"
     inkscape:window-width="1920"
     inkscape:window-height="1017"
     inkscape:window-x="-8"
     inkscape:window-y="-8"
     inkscape:window-maximized="1" />
  <metadata
     id="metadata1887">
    <rdf:RDF>
      <cc:Work
         rdf:about="">
        <dc:format>image/svg+xml</dc:format>
        <dc:type
           rdf:resource="http://purl.org/dc/dcmitype/StillImage" />
        <dc:title></dc:title>
      </cc:Work>
    </rdf:RDF>
  </metadata>
  <g
     inkscape:label="Layer 1"
     inkscape:groupmode="layer"
     id="layer1"
     transform="translate(1421.7894,-108.36831)">
    <path
       inkscape:connector-curvature="0"
       style="fill:#7f2aff;stroke:#000000;stroke-width:0.06121032px;stroke-linecap:butt;stroke-linejoin:miter;stroke-opacity:1"
       d="m -1242.6774,172.91502 c -0.3942,2.9e-4 -0.7838,0.0109 -1.1688,0.0322 -49.2819,2.71635 -177.8804,166.40779 -177.8804,166.40779 l 196.2524,0.55616 c -0.1353,0.18096 -0.4462,0.59491 -0.4462,0.59491 l 240.30451,0.71888 c 0,0 -85.55891,-122.37862 -119.13031,-120.42461 -10.0158,0.58297 -24.8409,11.47434 -40.714,26.46921 -35.1334,-38.52493 -74.0509,-74.37131 -97.2172,-74.35448 z"
       id="path2658-1" />
    <path
       inkscape:connector-curvature="0"
       style="fill:#7f2aff;stroke:#000000;stroke-width:0.02405934px;stroke-linecap:butt;stroke-linejoin:miter;stroke-opacity:1"
       d="m -673.08469,232.54675 c -0.25593,2e-4 -0.50884,0.007 -0.75878,0.0209 -25.80738,1.42247 -85.09522,70.81703 -107.06432,97.60664 -13.12515,-16.52459 -39.03083,-46.98114 -51.20102,-46.31033 -16.67885,0.91931 -60.20155,56.31872 -60.20155,56.31872 l 103.08708,0.29214 c -0.007,0.008 -0.095,0.11996 -0.095,0.11996 l 229.00159,0.64886 c 0,0 -0.32071,-0.43016 -0.50853,-0.68273 l 82.22257,0.2382 c 0,0 -34.16757,-47.34524 -47.57419,-46.58928 -9.63948,0.54354 -30.43355,24.24674 -41.35851,37.52477 -20.41568,-26.46228 -78.95537,-99.20721 -105.54935,-99.1879 z"
       id="path2658-7" />
    <path
       style="fill:#7f2aff;stroke:#000000;stroke-width:0.12155511px;stroke-linecap:butt;stroke-linejoin:miter;stroke-opacity:1"
       d="m -385.23236,339.80542 c 0,0 178.77081,-227.5554 247.27986,-231.33153 68.509047,-3.77612 243.10825,232.72073 243.10825,232.72073 z"
       id="path2658-8"
       inkscape:connector-curvature="0"
       sodipodi:nodetypes="czcc" />
    <path
       inkscape:connector-curvature="0"
       style="fill:#7f2aff;stroke:#000000;stroke-width:0.06121032px;stroke-linecap:butt;stroke-linejoin:miter;stroke-opacity:1"
       d="m 377.61046,172.91501 c -0.39424,2.9e-4 -0.78386,0.0109 -1.16888,0.0322 C 327.15974,175.66356 198.56122,339.355 198.56122,339.355 l 196.25244,0.55617 c -0.13534,0.18096 -0.44627,0.5949 -0.44627,0.5949 l 240.30455,0.71889 c 0,0 -85.55884,-122.37862 -119.13034,-120.42461 -10.01574,0.58296 -24.84082,11.47433 -40.71393,26.4692 -35.13344,-38.52492 -74.05096,-74.37131 -97.21721,-74.35448 z"
       id="path2658-1-8" />
    <path
       inkscape:connector-curvature="0"
       style="fill:#7f2aff;stroke:#000000;stroke-width:0.02405934px;stroke-linecap:butt;stroke-linejoin:miter;stroke-opacity:1"
       d="m 947.20317,232.54675 c -0.25596,1.9e-4 -0.50886,0.007 -0.75882,0.0209 -25.80738,1.42248 -85.09519,70.81703 -107.06429,97.60665 -13.12513,-16.5246 -39.03087,-46.98114 -51.20104,-46.31034 -16.67885,0.91932 -60.20156,56.31872 -60.20156,56.31872 l 103.08708,0.29214 c -0.007,0.008 -0.095,0.11996 -0.095,0.11996 l 229.00156,0.64886 c 0,0 -0.3207,-0.43015 -0.5085,-0.68272 l 82.2225,0.23819 c 0,0 -34.1675,-47.34523 -47.5741,-46.58928 -9.6395,0.54354 -30.4336,24.24675 -41.3585,37.52477 -20.4157,-26.46227 -78.95541,-99.20721 -105.54937,-99.18789 z"
       id="path2658-7-0" />
    <path
       style="fill:#7f2aff;stroke:#000000;stroke-width:0.12155511px;stroke-linecap:butt;stroke-linejoin:miter;stroke-opacity:1"
       d="m 1235.0554,339.80541 c 0,0 178.7709,-227.5554 247.2799,-231.33153 68.509,-3.77611 243.1082,232.72074 243.1082,232.72074 z"
       id="path2658-8-6"
       inkscape:connector-curvature="0"
       sodipodi:nodetypes="czcc" />
    <path
       inkscape:connector-curvature="0"
       style="fill:#7f2aff;stroke:#000000;stroke-width:0.06121032px;stroke-linecap:butt;stroke-linejoin:miter;stroke-opacity:1"
       d="m 1997.8982,172.91502 c -0.3942,2.9e-4 -0.7838,0.0109 -1.1688,0.0322 -49.2819,2.71635 -177.8804,166.40779 -177.8804,166.40779 l 196.2524,0.55616 c -0.1353,0.18096 -0.4462,0.59491 -0.4462,0.59491 l 240.3046,0.71888 c 0,0 -85.559,-122.37862 -119.1304,-120.42461 -10.0158,0.58297 -24.8409,11.47434 -40.714,26.46921 -35.1334,-38.52493 -74.0509,-74.37131 -97.2172,-74.35448 z"
       id="path2658-1-4" />
  </g>
</svg>
