<?xml version="1.0" encoding="UTF-8" standalone="no"?>
<!-- Created with Inkscape (http://www.inkscape.org/) -->

<svg
   xmlns:dc="http://purl.org/dc/elements/1.1/"
   xmlns:cc="http://creativecommons.org/ns#"
   xmlns:rdf="http://www.w3.org/1999/02/22-rdf-syntax-ns#"
   xmlns:svg="http://www.w3.org/2000/svg"
   xmlns="http://www.w3.org/2000/svg"
   xmlns:sodipodi="http://sodipodi.sourceforge.net/DTD/sodipodi-0.dtd"
   xmlns:inkscape="http://www.inkscape.org/namespaces/inkscape"
   width="14554.373"
   height="973.42877"
   viewBox="0 0 3850.8447 257.55305"
   version="1.1"
   id="svg2913"
   inkscape:version="0.92.4 (5da689c313, 2019-01-14)"
   sodipodi:docname="moutainfar.svg">
  <defs
     id="defs2907" />
  <sodipodi:namedview
     id="base"
     pagecolor="#ffffff"
     bordercolor="#666666"
     borderopacity="1.0"
     inkscape:pageopacity="0.0"
     inkscape:pageshadow="2"
     inkscape:zoom="0.061871843"
     inkscape:cx="3543.3697"
     inkscape:cy="-242.56924"
     inkscape:document-units="mm"
     inkscape:current-layer="layer1"
     showgrid="false"
     fit-margin-top="0"
     fit-margin-left="0"
     fit-margin-right="0"
     fit-margin-bottom="0"
     inkscape:window-width="1920"
     inkscape:window-height="1017"
     inkscape:window-x="-8"
     inkscape:window-y="-8"
     inkscape:window-maximized="1"
     units="px" />
  <metadata
     id="metadata2910">
    <rdf:RDF>
      <cc:Work
         rdf:about="">
        <dc:format>image/svg+xml</dc:format>
        <dc:type
           rdf:resource="http://purl.org/dc/dcmitype/StillImage" />
        <dc:title></dc:title>
      </cc:Work>
    </rdf:RDF>
  </metadata>
  <g
     inkscape:label="Layer 1"
     inkscape:groupmode="layer"
     id="layer1"
     transform="translate(1492.1726,-229.65548)">
    <path
       style="fill:#aaaaff;stroke:#000000;stroke-width:0.06251364px;stroke-linecap:butt;stroke-linejoin:miter;stroke-opacity:1"
       d="m -813.06114,229.68824 c -0.4083,-0.003 -0.81729,0 -1.2268,0.003 -64.46391,0.82125 -114.35286,97.06653 -143.22111,171.08274 -32.44998,-35.48324 -68.27875,-68.23217 -89.14075,-67.08231 -29.008,1.59891 -88.0858,64.23213 -126.4574,108.60297 -14.9624,-30.37173 -34.3876,-65.00152 -44.7553,-64.00925 -8.1728,0.78219 -22.1946,22.18194 -35.2471,45.70299 -25.3735,-33.26799 -55.5009,-67.14609 -72.2951,-66.07491 -18.2563,1.16447 -52.8867,40.79151 -79.9684,75.64309 -10.3437,-15.40676 -20.8934,-28.03641 -27.4245,-27.51648 -16.4353,1.3084 -59.3225,80.15427 -59.3225,80.15427 l 117.6443,0.48133 c 0,0 -0.17,-0.33122 -0.2869,-0.55678 l 165.5818,0.5429 c 0,0 -0.1509,-0.23518 -0.1734,-0.26909 l 56.6984,0.27893 c 0,0 -0.1931,-0.44979 -0.3313,-0.77234 l 266.12589,0.75376 c 0,0 -0.48965,-0.65866 -0.99803,-1.34007 l 143.50642,0.78422 c -0.0173,0.0194 -0.11794,0.14934 -0.11794,0.14934 l 56.98719,0.16148 41.44872,0.22656 c 0,0 -0.0243,-0.0982 -0.0277,-0.1091 l 52.64982,0.14916 c 0,0 -0.21816,-0.29273 -0.36263,-0.4869 l 166.43898,0.47145 c 0,0 -97.97754,-132.71197 -136.42187,-130.59299 -19.68213,1.08476 -55.57887,35.08331 -85.93165,68.01038 -7.08837,-5.62767 -13.52664,-9.21761 -18.33293,-9.09985 -26.84617,-75.87094 -77.19424,-184.84532 -145.03868,-185.2897 z m 454.12086,193.02823 c -0.15055,1.2e-4 -0.29957,0.003 -0.44663,0.0121 -18.82533,1.03763 -67.94912,63.56688 -67.94912,63.56688 l 134.75199,0.3817 c 0,0 -0.0423,-0.0566 -0.0447,-0.06 l 24.9454,0.0708 c 0,0 -0.0727,-0.0975 -0.12836,-0.17241 l 59.2679,0.1679 c 0,0 -29.92197,-40.52952 -41.66286,-39.88238 -6.84954,0.37755 -20.12404,13.80355 -30.00097,24.92812 -4.40571,-4.58901 -8.94826,-8.41635 -11.73366,-8.26281 -2.80445,0.15454 -7.45991,4.06821 -11.97634,8.62927 -15.20162,-18.87854 -41.81175,-49.38896 -55.0227,-49.37937 z"
       id="path2658"
       inkscape:connector-curvature="0" />
    <path
       style="fill:#aaaaff;stroke:#000000;stroke-width:0.06251364px;stroke-linecap:butt;stroke-linejoin:miter;stroke-opacity:1"
       d="m 470.51529,229.68824 c -0.40827,-0.003 -0.81726,0 -1.22679,0.003 -64.46395,0.82125 -114.35291,97.06653 -143.22109,171.08275 -32.45007,-35.48325 -68.27876,-68.23218 -89.1408,-67.0823 -29.00807,1.59889 -88.08574,64.23213 -126.45729,108.60297 -14.962452,-30.37175 -34.38769,-65.00152 -44.755515,-64.00927 -8.172665,0.78221 -22.194465,22.18196 -35.246942,45.703 -25.3735346,-33.268 -55.50094,-67.14608 -72.295087,-66.07489 -18.25638,1.16446 -52.886656,40.7915 -79.968476,75.64306 -10.34361,-15.40674 -20.8934,-28.0364 -27.42449,-27.51646 -16.43537,1.30839 -59.32254,80.15427 -59.32254,80.15427 l 117.644375,0.48132 c 0,0 -0.170847,-0.33121 -0.287041,-0.55677 l 165.582079,0.5429 c 0,0 -0.151595,-0.2352 -0.173276,-0.26911 l 56.698343,0.27896 c 0,0 -0.19304,-0.44979 -0.33134,-0.77237 l 266.12593,0.75378 c 0,0 -0.48974,-0.65864 -0.99805,-1.34009 l 143.50648,0.78422 c -0.0156,0.0194 -0.11812,0.14934 -0.11812,0.14934 l 56.98712,0.16148 41.44886,0.22656 c 0,0 -0.0248,-0.0982 -0.0272,-0.1091 l 52.64991,0.14916 c 0,0 -0.21816,-0.29273 -0.36266,-0.4869 l 166.43897,0.47145 c 0,0 -97.97752,-132.71197 -136.4219,-130.59299 -19.68213,1.08476 -55.57883,35.08331 -85.93167,68.01037 -7.08828,-5.62766 -13.52664,-9.2176 -18.33298,-9.09984 -26.84614,-75.8706 -77.19418,-184.84497 -145.03866,-185.28937 z m 454.12087,193.02823 c -0.15061,1.1e-4 -0.29955,0.003 -0.44666,0.0121 -18.82528,1.03765 -67.94907,63.56688 -67.94907,63.56688 l 134.75201,0.38172 c 0,0 -0.0425,-0.0566 -0.0445,-0.06 l 24.94546,0.0708 c 0,0 -0.072,-0.0975 -0.1283,-0.17241 l 59.2678,0.1679 c 0,0 -29.9219,-40.5295 -41.6628,-39.88238 -6.8496,0.37755 -20.1241,13.80355 -30.001,24.92811 -4.40575,-4.58898 -8.94822,-8.41632 -11.73366,-8.2628 -2.80441,0.15454 -7.45995,4.06822 -11.97633,8.62927 -15.20163,-18.87854 -41.81178,-49.38896 -55.02276,-49.37937 z"
       id="path2658-0"
       inkscape:connector-curvature="0" />
    <path
       style="fill:#aaaaff;stroke:#000000;stroke-width:0.06251364px;stroke-linecap:butt;stroke-linejoin:miter;stroke-opacity:1"
       d="m 1754.0919,230.17733 c -0.4083,-0.003 -0.8172,0 -1.2268,0.003 -64.4639,0.82125 -114.3529,97.06653 -143.221,171.08275 -32.4501,-35.48325 -68.2788,-68.23218 -89.1409,-67.0823 -29.0081,1.59889 -88.0857,64.23213 -126.4573,108.60297 -14.9624,-30.37175 -34.3877,-65.00152 -44.7555,-64.00927 -8.1727,0.78221 -22.1945,22.18196 -35.2469,45.703 -25.3736,-33.268 -55.501,-67.14608 -72.2951,-66.07489 -18.2564,1.16446 -52.8867,40.7915 -79.9685,75.64306 -10.3436,-15.40674 -20.8934,-28.0364 -27.4245,-27.51646 -16.4354,1.30839 -59.3225,80.15427 -59.3225,80.15427 l 117.6443,0.48132 c 0,0 -0.1708,-0.33121 -0.287,-0.55677 l 165.5821,0.5429 c 0,0 -0.1516,-0.2352 -0.1733,-0.26911 l 56.6984,0.27896 c 0,0 -0.1931,-0.44979 -0.3314,-0.77237 l 266.126,0.75378 c 0,0 -0.4898,-0.65864 -0.9981,-1.34009 l 143.5065,0.78422 c -0.016,0.0194 -0.1181,0.14934 -0.1181,0.14934 l 56.9871,0.16148 41.4489,0.22656 c 0,0 -0.025,-0.0982 -0.027,-0.1091 l 52.6499,0.14916 c 0,0 -0.2182,-0.29273 -0.3627,-0.4869 l 166.439,0.47145 c 0,0 -97.9775,-132.71197 -136.4219,-130.59299 -19.6821,1.08476 -55.5788,35.08331 -85.9317,68.01037 -7.0883,-5.62766 -13.5266,-9.2176 -18.333,-9.09984 -26.8461,-75.8706 -77.1941,-184.84497 -145.0386,-185.28937 z m 454.1209,193.02823 c -0.1506,1.1e-4 -0.2995,0.003 -0.4467,0.0121 -18.8252,1.03766 -67.949,63.56689 -67.949,63.56689 l 134.752,0.38172 c 0,0 -0.043,-0.0566 -0.044,-0.06 l 24.9454,0.0708 c 0,0 -0.072,-0.0975 -0.1283,-0.17241 l 59.2678,0.16789 c 0,0 -29.9218,-40.5295 -41.6628,-39.88238 -6.8496,0.37755 -20.1241,13.80355 -30.001,24.92811 -4.4057,-4.58898 -8.9482,-8.41632 -11.7336,-8.2628 -2.8044,0.15454 -7.46,4.06822 -11.9764,8.62927 -15.2016,-18.87854 -41.8117,-49.38896 -55.0227,-49.37937 z"
       id="path2658-0-2"
       inkscape:connector-curvature="0" />
  </g>
</svg>
