<?xml version="1.0" encoding="UTF-8" standalone="no"?>
<!-- Created with Inkscape (http://www.inkscape.org/) -->

<svg
   width="41.705009mm"
   height="65.537956mm"
   viewBox="0 0 41.705009 65.537957"
   version="1.1"
   id="svg7718"
   inkscape:version="1.1.1 (3bf5ae0d25, 2021-09-20)"
   sodipodi:docname="robot.svg"
   xmlns:inkscape="http://www.inkscape.org/namespaces/inkscape"
   xmlns:sodipodi="http://sodipodi.sourceforge.net/DTD/sodipodi-0.dtd"
   xmlns="http://www.w3.org/2000/svg"
   xmlns:svg="http://www.w3.org/2000/svg"
   xmlns:rdf="http://www.w3.org/1999/02/22-rdf-syntax-ns#"
   xmlns:cc="http://creativecommons.org/ns#"
   xmlns:dc="http://purl.org/dc/elements/1.1/">
  <defs
     id="defs7712" />
  <sodipodi:namedview
     id="base"
     pagecolor="#ffffff"
     bordercolor="#666666"
     borderopacity="1.0"
     inkscape:pageopacity="0.0"
     inkscape:pageshadow="2"
     inkscape:zoom="1.4142136"
     inkscape:cx="6.7175145"
     inkscape:cy="179.95868"
     inkscape:document-units="mm"
     inkscape:current-layer="layer1"
     showgrid="false"
     fit-margin-top="0"
     fit-margin-left="0"
     fit-margin-right="0"
     fit-margin-bottom="0"
     inkscape:window-width="1920"
     inkscape:window-height="1017"
     inkscape:window-x="-8"
     inkscape:window-y="-8"
     inkscape:window-maximized="1"
     inkscape:pagecheckerboard="0" />
  <metadata
     id="metadata7715">
    <rdf:RDF>
      <cc:Work
         rdf:about="">
        <dc:format>image/svg+xml</dc:format>
        <dc:type
           rdf:resource="http://purl.org/dc/dcmitype/StillImage" />
      </cc:Work>
    </rdf:RDF>
  </metadata>
  <g
     inkscape:label="Layer 1"
     inkscape:groupmode="layer"
     id="layer1"
     transform="translate(-62.007519,-68.212062)">
    <g
       id="robot-body">
      <g
         id="right-arm">
        <rect
           ry="0.67641258"
           rx="0.37189832"
           y="105.36721"
           x="94.919273"
           height="9.5438995"
           width="4.0632439"
           id="top-arm-r"
           style="fill:#4b0082;fill-opacity:1;fill-rule:evenodd;stroke:#ffffff;stroke-width:0.529167;stroke-linecap:round;stroke-linejoin:round;stroke-miterlimit:4;stroke-dasharray:none;stroke-dashoffset:0;stroke-opacity:1" />
        <rect
           ry="0.67641258"
           rx="0.37189832"
           y="110.50768"
           x="94.919266"
           height="9.5438995"
           width="4.0632439"
           id="bot-arm-r"
           style="fill:#4b0082;fill-opacity:1;fill-rule:evenodd;stroke:#ffffff;stroke-width:0.529167;stroke-linecap:round;stroke-linejoin:round;stroke-miterlimit:4;stroke-dasharray:none;stroke-dashoffset:0;stroke-opacity:1" />
      </g>
      <rect
         ry="0.67641258"
         rx="0.37189832"
         y="104.83804"
         x="71.390251"
         height="15.213541"
         width="23.529018"
         id="body-box"
         style="fill:#4b0082;fill-opacity:1;fill-rule:evenodd;stroke:#ffffff;stroke-width:0.529167;stroke-linecap:round;stroke-linejoin:round;stroke-miterlimit:4;stroke-dasharray:none;stroke-dashoffset:0;stroke-opacity:1" />
      <g
         id="chest-screen">
        <rect
           style="opacity:1;fill:#f0e68c;fill-opacity:1;fill-rule:evenodd;stroke:#ffffff;stroke-width:0.529167;stroke-linecap:round;stroke-linejoin:round;stroke-miterlimit:4;stroke-dasharray:none;stroke-dashoffset:0;stroke-opacity:1"
           id="robot-screen"
           width="15.875"
           height="6.6145835"
           x="75.264503"
           y="108.8068" />
        <path
           style="fill:none;stroke:#4b0082;stroke-width:0.529167;stroke-linecap:square;stroke-linejoin:round;stroke-miterlimit:4;stroke-dasharray:none;stroke-opacity:1;paint-order:stroke fill markers"
           d="m 75.595893,113.02743 5.782464,1e-5 0.500405,-1.89695 0.778406,3.74647 1.223215,-5.54857 0.722809,4.88464 0.667206,-2.51344 0.166801,1.18557 5.282056,2e-5"
           id="pulse-path"
           sodipodi:nodetypes="ccccccccc" />
      </g>
      <g
         id="left-arm">
        <rect
           ry="0.67641258"
           rx="0.37189832"
           y="105.36721"
           x="67.327011"
           height="9.5438995"
           width="4.0632439"
           id="top-part-l"
           style="fill:#4b0082;fill-opacity:1;fill-rule:evenodd;stroke:#ffffff;stroke-width:0.529167;stroke-linecap:round;stroke-linejoin:round;stroke-miterlimit:4;stroke-dasharray:none;stroke-dashoffset:0;stroke-opacity:1" />
        <rect
           ry="0.67641258"
           rx="0.37189832"
           y="110.50768"
           x="67.327011"
           height="9.5438995"
           width="4.0632439"
           id="bot-part-l"
           style="fill:#4b0082;fill-opacity:1;fill-rule:evenodd;stroke:#ffffff;stroke-width:0.529167;stroke-linecap:round;stroke-linejoin:round;stroke-miterlimit:4;stroke-dasharray:none;stroke-dashoffset:0;stroke-opacity:1" />
      </g>
    </g>
    <rect
       style="opacity:1;fill:#4b0082;fill-opacity:1;fill-rule:evenodd;stroke:#ffffff;stroke-width:0.529167;stroke-linecap:round;stroke-linejoin:round;stroke-miterlimit:4;stroke-dasharray:none;stroke-dashoffset:0;stroke-opacity:1"
       id="robot-neck"
       width="8.397624"
       height="2.9293153"
       x="78.955948"
       y="101.90875"
       rx="0"
       ry="0" />
    <g
       id="head-robot"
       style="fill:#4b0082;fill-opacity:1;stroke:#ffffff;stroke-width:0.529167;stroke-miterlimit:4;stroke-dasharray:none"
       transform="translate(48.696383,-12.611786)">
      <rect
         style="opacity:1;fill:#4b0082;fill-opacity:1;fill-rule:evenodd;stroke:#ffffff;stroke-width:0.529167;stroke-linecap:round;stroke-linejoin:round;stroke-miterlimit:4;stroke-dasharray:none;stroke-dashoffset:0;stroke-opacity:1"
         id="right-ear"
         width="2.7715523"
         height="4.8166962"
         x="44.150272"
         y="105.43075"
         rx="0.31376046"
         ry="0.60208905" />
      <rect
         style="opacity:1;fill:#4b0082;fill-opacity:1;fill-rule:evenodd;stroke:#ffffff;stroke-width:0.529167;stroke-linecap:round;stroke-linejoin:round;stroke-miterlimit:4;stroke-dasharray:none;stroke-dashoffset:0;stroke-opacity:1"
         id="left-ear"
         width="2.7715523"
         height="4.8166962"
         x="21.994934"
         y="105.43075"
         rx="0.31376046"
         ry="0.60208905" />
      <rect
         style="opacity:1;fill:#4b0082;fill-opacity:1;fill-rule:evenodd;stroke:#ffffff;stroke-width:0.529167;stroke-linecap:round;stroke-linejoin:round;stroke-miterlimit:4;stroke-dasharray:none;stroke-dashoffset:0;stroke-opacity:1"
         id="head"
         width="19.561693"
         height="13.282631"
         x="24.696924"
         y="101.19778"
         rx="1.9638433"
         ry="1.8049358" />
    </g>
    <g
       id="robot-leg">
      <g
         transform="translate(50.030395,-12.804903)"
         id="left-leg"
         style="fill:#4b0082;fill-opacity:1;stroke:#ffffff;stroke-width:0.529167;stroke-miterlimit:4;stroke-dasharray:none">
        <rect
           style="opacity:1;fill:#4b0082;fill-opacity:1;fill-rule:evenodd;stroke:#ffffff;stroke-width:0.529167;stroke-linecap:round;stroke-linejoin:round;stroke-miterlimit:4;stroke-dasharray:none;stroke-dashoffset:0;stroke-opacity:1"
           id="left-thigh"
           width="4.6858091"
           height="8.9170799"
           x="25.330711"
           y="132.84653"
           rx="0"
           ry="0" />
        <rect
           style="opacity:1;fill:#4b0082;fill-opacity:1;fill-rule:evenodd;stroke:#ffffff;stroke-width:0.529167;stroke-linecap:round;stroke-linejoin:round;stroke-miterlimit:4;stroke-dasharray:none;stroke-dashoffset:0;stroke-opacity:1"
           id="left-feet"
           width="7.8596735"
           height="4.5523801"
           x="23.743778"
           y="141.73796" />
      </g>
      <g
         id="right-leg"
         transform="translate(60.931899,-12.804903)"
         style="fill:#4b0082;fill-opacity:1;stroke:#ffffff;stroke-width:0.529167;stroke-miterlimit:4;stroke-dasharray:none">
        <rect
           style="opacity:1;fill:#4b0082;fill-opacity:1;fill-rule:evenodd;stroke:#ffffff;stroke-width:0.529167;stroke-linecap:round;stroke-linejoin:round;stroke-miterlimit:4;stroke-dasharray:none;stroke-dashoffset:0;stroke-opacity:1"
           id="rightthigh"
           width="4.6858091"
           height="8.9170799"
           x="25.330711"
           y="132.84653"
           rx="0"
           ry="0" />
        <rect
           style="opacity:1;fill:#4b0082;fill-opacity:1;fill-rule:evenodd;stroke:#ffffff;stroke-width:0.529167;stroke-linecap:round;stroke-linejoin:round;stroke-miterlimit:4;stroke-dasharray:none;stroke-dashoffset:0;stroke-opacity:1"
           id="right-feet"
           width="7.8596735"
           height="4.5523801"
           x="23.743778"
           y="141.73796" />
      </g>
    </g>
    <g
       id="robot-eyes">
      <ellipse
         ry="2.271791"
         rx="2.4054255"
         cy="93.758224"
         cx="78.341568"
         id="left-eye"
         style="fill:#f0e68c;fill-opacity:1;fill-rule:evenodd;stroke:none;stroke-width:0.529167;stroke-linecap:round;stroke-linejoin:round;stroke-miterlimit:4;stroke-dasharray:none;stroke-dashoffset:0;stroke-opacity:1" />
      <ellipse
         ry="2.271791"
         rx="2.4054255"
         cy="93.758224"
         cx="87.967957"
         id="right-eye"
         style="fill:#f0e68c;fill-opacity:1;fill-rule:evenodd;stroke:none;stroke-width:0.529167;stroke-linecap:round;stroke-linejoin:round;stroke-miterlimit:4;stroke-dasharray:none;stroke-dashoffset:0;stroke-opacity:1" />
    </g>
    <path
       style="fill:#4b0082;fill-opacity:1;stroke:#ffffff;stroke-width:0.529167;stroke-linecap:round;stroke-linejoin:miter;stroke-miterlimit:4;stroke-dasharray:none;stroke-opacity:1"
       d="m 80.348433,98.569068 c 0,0 0.35047,0.230139 0.886617,0.452935 0.500923,0.208159 1.163928,0.409909 1.854614,0.411566 0.697885,0.0017 1.358455,-0.193278 1.86967,-0.405217 0.605717,-0.251118 1.001758,-0.526083 1.001758,-0.526083"
       id="mouth"
       inkscape:connector-curvature="0"
       sodipodi:nodetypes="csssc" />
    <path
       style="fill:none;stroke:none;stroke-width:0.264583px;stroke-linecap:butt;stroke-linejoin:miter;stroke-opacity:1"
       d="m 80.301659,99.484488 1.426558,-0.63143 1.42655,0.46772 1.26285,-0.56127 1.73057,0.56127"
       id="mouth-dizzy"
       sodipodi:nodetypes="ccccc" />
    <path
       id="spin-path-neck"
       style="fill:none;fill-rule:evenodd;stroke:#9400fd;stroke-width:0.578955;stroke-linecap:round;stroke-linejoin:round;stroke-miterlimit:4;stroke-dasharray:none;stroke-opacity:1"
       d="m 87.455071,102.43792 c 0.624121,-0.0425 3.460196,0.43034 3.460196,0.96114 0,0.53082 -3.496883,0.96112 -7.810506,0.96112 -4.313623,0 -7.819502,-0.47214 -7.810504,-0.96112 0.0093,-0.50161 2.533203,-0.98951 3.625396,-0.96114"
       sodipodi:nodetypes="csssc"
       class="spin-paths" />
    <path
       id="spin-path-neck-6-9"
       style="fill:none;fill-rule:evenodd;stroke:#9400fd;stroke-width:0.269933;stroke-linecap:round;stroke-linejoin:round;stroke-miterlimit:4;stroke-dasharray:none;stroke-opacity:1"
       d="m 84.330564,82.395403 c 0.189207,-0.03047 1.048983,0.308578 1.048983,0.689192 0,0.380628 -1.060105,0.689178 -2.367811,0.689178 -1.307706,0 -2.370539,-0.338552 -2.367811,-0.689178 0.0028,-0.359683 0.767959,-0.709535 1.099065,-0.689192"
       sodipodi:nodetypes="csssc"
       class="spin-paths" />
    <path
       id="spin-path-head"
       style="fill:none;fill-rule:evenodd;stroke:#9400fd;stroke-width:0.579437;stroke-linecap:round;stroke-linejoin:round;stroke-miterlimit:4;stroke-dasharray:none;stroke-opacity:0.898039"
       d="m 94.313126,91.677036 c 1.643126,-0.122779 9.109684,1.239852 9.109684,2.769298 0,1.529424 -9.206268,2.769287 -20.562763,2.769287 -11.356493,0 -20.586442,-1.360406 -20.562754,-2.769287 0.02432,-1.445288 6.669179,-2.851141 9.544597,-2.769298"
       sodipodi:nodetypes="csssc"
       class="spin-paths" />
    <path
       id="spin-path-head-0"
       style="fill:none;fill-rule:evenodd;stroke:#9400fd;stroke-width:0.417386;stroke-linecap:round;stroke-linejoin:round;stroke-miterlimit:4;stroke-dasharray:none;stroke-opacity:0.898039"
       d="m 92.846655,97.635658 c 1.416006,-0.07393 7.850535,0.746516 7.850535,1.667388 0,0.920874 -7.933764,1.667394 -17.720551,1.667394 -9.78678,0 -17.74095,-0.8191 -17.720536,-1.667394 0.02096,-0.870202 5.747354,-1.716666 8.225327,-1.667388"
       sodipodi:nodetypes="csssc"
       class="spin-paths" />
    <g
       id="antena">
      <path
         style="fill:none;stroke:none;stroke-width:0.79375;stroke-linecap:butt;stroke-linejoin:miter;stroke-miterlimit:4;stroke-dasharray:1.5875, 0.79375;stroke-dashoffset:0;stroke-opacity:1"
         d="m 82.937424,88.699383 c 0,0 -3.307291,-6.520089 -7.559524,-8.976934"
         id="antena-m-path-left" />
      <path
         style="fill:none;stroke:none;stroke-width:0.79375;stroke-linecap:butt;stroke-linejoin:miter;stroke-miterlimit:4;stroke-dasharray:1.5875, 0.79375;stroke-dashoffset:0;stroke-opacity:1"
         d="m 82.937424,88.699383 c 0,0 3.307291,-6.520089 7.559524,-8.976934"
         id="antena-m-path-right" />
      <path
         style="fill:none;stroke:#4b0082;stroke-width:0.79375;stroke-linecap:butt;stroke-linejoin:miter;stroke-miterlimit:4;stroke-dasharray:1.5875, 0.79375;stroke-dashoffset:0;stroke-opacity:1"
         d="M 82.937424,88.699383 V 76.982121"
         id="antena-body" />
      <circle
         style="fill:#f0e68c;fill-opacity:1;fill-rule:evenodd;stroke:#4b0082;stroke-width:0.79375;stroke-linecap:round;stroke-linejoin:round;stroke-miterlimit:4;stroke-dasharray:none;stroke-dashoffset:0;stroke-opacity:1"
         id="antena-led"
         cx="82.928955"
         cy="76.329132"
         r="1.8832169" />
      <circle
         style="fill:#ffffff;fill-opacity:1;fill-rule:evenodd;stroke:none;stroke-width:0.229358;stroke-linecap:round;stroke-linejoin:round;stroke-miterlimit:4;stroke-dasharray:none;stroke-dashoffset:0;stroke-opacity:1"
         id="path10401"
         cx="83.64267"
         cy="75.59819"
         r="0.36200944" />
    </g>
    <path
       id="spin-path-neck-6"
       style="fill:none;fill-rule:evenodd;stroke:#9400fd;stroke-width:0.470901;stroke-linecap:round;stroke-linejoin:round;stroke-miterlimit:4;stroke-dasharray:none;stroke-opacity:1"
       d="m 85.484739,76.209371 c 0.375948,-0.04667 2.084295,0.472628 2.084295,1.055589 0,0.582983 -2.106394,1.055568 -4.70476,1.055568 -2.598368,0 -4.710181,-0.518537 -4.70476,-1.055568 0.0056,-0.550903 1.525909,-1.086747 2.183804,-1.055589"
       sodipodi:nodetypes="csssc"
       class="spin-paths" />
    <g
       id="eye-dizzy">
      <path
         sodipodi:type="spiral"
         style="fill:none;fill-rule:evenodd;stroke:#4b0082;stroke-width:1.40493;stroke-linecap:round;stroke-miterlimit:4;stroke-dasharray:none;stroke-opacity:1"
         id="dizzy"
         sodipodi:cx="-131.28908"
         sodipodi:cy="39.444305"
         sodipodi:expansion="1"
         sodipodi:revolution="3"
         sodipodi:radius="12.697657"
         sodipodi:argument="-17.854185"
         sodipodi:t0="0"
         d="m -131.28908,39.444305 c 0.34646,0.534117 -0.54905,0.730528 -0.88773,0.57583 -0.91782,-0.419221 -0.80971,-1.68623 -0.26393,-2.351302 0.97629,-1.189659 2.80496,-0.963686 3.81487,0.04798 1.48209,1.484664 1.12578,3.940144 -0.35989,5.278436 -1.98016,1.783733 -5.08134,1.291553 -6.742,-0.671795 -2.08977,-2.470674 -1.45927,-6.225451 0.9837,-8.205569 2.95876,-2.398188 7.3712,-1.628116 9.66914,1.295608 2.70803,3.445507 1.79767,8.517982 -1.60752,11.132701 -3.93143,3.018798 -9.66544,1.967715 -12.59627,-1.91942 -3.33018,-4.416809 -2.13808,-10.813392 2.23133,-14.059834 4.90182,-3.642018 11.96169,-2.308694 15.5234,2.543233 3.95418,5.386557 2.47949,13.110248 -2.85514,16.986967"
         transform="matrix(0.13726636,0,0,0.13726636,96.164982,88.513898)" />
      <path
         sodipodi:type="spiral"
         style="fill:none;fill-rule:evenodd;stroke:#4b0082;stroke-width:1.40493;stroke-linecap:round;stroke-miterlimit:4;stroke-dasharray:none;stroke-opacity:1"
         id="dizzy-3"
         sodipodi:cx="-131.28908"
         sodipodi:cy="39.444305"
         sodipodi:expansion="1"
         sodipodi:revolution="3"
         sodipodi:radius="12.697657"
         sodipodi:argument="-17.854185"
         sodipodi:t0="0"
         transform="matrix(0.13726636,0,0,0.13726636,105.82505,88.368387)"
         d="m -131.28908,39.444305 c 0.34646,0.534117 -0.54905,0.730528 -0.88773,0.57583 -0.91782,-0.419221 -0.80971,-1.68623 -0.26393,-2.351302 0.97629,-1.189659 2.80496,-0.963686 3.81487,0.04798 1.48209,1.484664 1.12578,3.940144 -0.35989,5.278436 -1.98016,1.783733 -5.08134,1.291553 -6.742,-0.671795 -2.08977,-2.470674 -1.45927,-6.225451 0.9837,-8.205569 2.95876,-2.398188 7.3712,-1.628116 9.66914,1.295608 2.70803,3.445507 1.79767,8.517982 -1.60752,11.132701 -3.93143,3.018798 -9.66544,1.967715 -12.59627,-1.91942 -3.33018,-4.416809 -2.13808,-10.813392 2.23133,-14.059834 4.90182,-3.642018 11.96169,-2.308694 15.5234,2.543233 3.95418,5.386557 2.47949,13.110248 -2.85514,16.986967" />
    </g>
    <g
       id="eye-on">
      <g
         id="star-eye">
        <path
           sodipodi:type="star"
           style="fill:#4b0082;fill-opacity:1;fill-rule:evenodd;stroke:#4b0082;stroke-width:2;stroke-linecap:round;stroke-linejoin:round;stroke-miterlimit:4;stroke-dasharray:none;stroke-dashoffset:0;stroke-opacity:1"
           id="path16571"
           inkscape:flatsided="false"
           sodipodi:sides="5"
           sodipodi:cx="-171.42857"
           sodipodi:cy="-138.57143"
           sodipodi:r1="41.664967"
           sodipodi:r2="24.948074"
           sodipodi:arg1="0.78539816"
           sodipodi:arg2="1.4137167"
           inkscape:rounded="0.0381228"
           inkscape:randomized="0"
           d="m -141.96699,-109.10985 c -0.70114,0.70114 -24.5795,-4.97577 -25.55885,-4.82065 -0.97934,0.15511 -21.93475,12.93299 -22.81823,12.48283 -0.88348,-0.45016 -2.86324,-24.91409 -3.3134,-25.79757 -0.45016,-0.88348 -19.07822,-16.86468 -18.92311,-17.84402 0.15512,-0.97935 22.80992,-10.42198 23.51105,-11.12312 0.70114,-0.70113 10.14377,-23.35593 11.12312,-23.51105 0.97935,-0.15511 16.96054,18.47295 17.84403,18.92311 0.88348,0.45015 25.34741,2.42991 25.79756,3.31339 0.45016,0.88349 -12.32772,21.8389 -12.48283,22.81824 -0.15511,0.97935 5.52179,24.85771 4.82066,25.55884 z"
           inkscape:transform-center-x="-0.020997517"
           inkscape:transform-center-y="-0.17143632"
           transform="matrix(0.04739917,0.00916603,-0.00916603,0.04739917,94.774786,102.02796)" />
      </g>
      <g
         id="heart-path"
         transform="translate(0.27616445,-0.13692186)"
         style="fill:none;fill-opacity:1">
        <path
           style="fill:none;fill-opacity:1;stroke:#4b0082;stroke-width:0.310148;stroke-linecap:round;stroke-linejoin:miter;stroke-miterlimit:4;stroke-dasharray:none;stroke-opacity:1"
           d="m 78.021999,95.593618 c 0,0 -1.418418,-0.9433 -1.543267,-1.581415 -0.124849,-0.638114 0.319057,-1.165253 0.735219,-1.262357 0.416162,-0.0971 0.679731,0.13872 0.790708,0.263569"
           id="path14767"
           sodipodi:nodetypes="cssc" />
        <path
           style="fill:none;fill-opacity:1;stroke:#4b0082;stroke-width:0.310148;stroke-linecap:round;stroke-linejoin:miter;stroke-miterlimit:4;stroke-dasharray:none;stroke-opacity:1"
           d="m 78.021999,95.593618 c 0,0 1.383738,-0.9433 1.508587,-1.581415 0.124848,-0.638114 -0.319058,-1.165253 -0.73522,-1.262357 -0.416162,-0.0971 -0.679731,0.13872 -0.790707,0.263569"
           id="path14767-7"
           sodipodi:nodetypes="cssc" />
      </g>
    </g>
    <g
       id="antena-effect">
      <path
         style="fill:none;stroke:#f0e68c;stroke-width:0.529167;stroke-linecap:round;stroke-linejoin:miter;stroke-miterlimit:4;stroke-dasharray:none;stroke-opacity:1"
         d="m 82.898144,68.476645 v 4.610399"
         id="path24482" />
      <path
         style="fill:none;stroke:#f0e68c;stroke-width:0.529167;stroke-linecap:round;stroke-linejoin:miter;stroke-miterlimit:4;stroke-dasharray:none;stroke-opacity:1"
         d="m 75.216071,73.771161 4.38475,1.424692"
         id="path24482-5"
         inkscape:transform-center-x="2.3482202"
         inkscape:transform-center-y="-0.79130168" />
      <path
         style="fill:none;stroke:#f0e68c;stroke-width:0.529167;stroke-linecap:round;stroke-linejoin:miter;stroke-miterlimit:4;stroke-dasharray:none;stroke-opacity:1"
         d="m 78.185499,82.974357 2.709925,-3.729891"
         id="path24482-5-2"
         inkscape:transform-center-x="1.4782127"
         inkscape:transform-center-y="1.9887648" />
      <path
         style="fill:none;stroke:#f0e68c;stroke-width:0.529167;stroke-linecap:round;stroke-linejoin:miter;stroke-miterlimit:4;stroke-dasharray:none;stroke-opacity:1"
         d="M 87.808991,83.156896 85.099066,79.427005"
         id="path24482-5-2-0"
         inkscape:transform-center-x="-1.4782127"
         inkscape:transform-center-y="1.9887648" />
      <path
         style="fill:none;stroke:#f0e68c;stroke-width:0.529167;stroke-linecap:round;stroke-linejoin:miter;stroke-miterlimit:4;stroke-dasharray:none;stroke-opacity:1"
         d="M 90.622633,73.846408 86.237883,75.2711"
         id="path24482-5-3"
         inkscape:transform-center-x="-2.3482198"
         inkscape:transform-center-y="-0.79130168" />
      <circle
         style="fill:none;fill-opacity:1;fill-rule:evenodd;stroke:#4b0082;stroke-width:0.529167;stroke-linecap:round;stroke-linejoin:round;stroke-miterlimit:4;stroke-dasharray:none;stroke-dashoffset:0;stroke-opacity:1;paint-order:stroke fill markers"
         id="radiated-sound"
         cx="82.983505"
         cy="76.361557"
         r="3.3518062" />
    </g>
  </g>
</svg>
