<?xml version="1.0" encoding="UTF-8" standalone="no"?>
<!-- Created with Inkscape (http://www.inkscape.org/) -->

<svg
   width="41.705009mm"
   height="65.537956mm"
   viewBox="0 0 41.705009 65.537957"
   version="1.1"
   id="svg7718"
   inkscape:version="1.1.1 (3bf5ae0d25, 2021-09-20)"
   sodipodi:docname="robot.svg"
   xmlns:inkscape="http://www.inkscape.org/namespaces/inkscape"
   xmlns:sodipodi="http://sodipodi.sourceforge.net/DTD/sodipodi-0.dtd"
   xmlns="http://www.w3.org/2000/svg"
   xmlns:svg="http://www.w3.org/2000/svg"
   xmlns:rdf="http://www.w3.org/1999/02/22-rdf-syntax-ns#"
   xmlns:cc="http://creativecommons.org/ns#"
   xmlns:dc="http://purl.org/dc/elements/1.1/">
  <defs
     id="defs7712">
    <inkscape:path-effect
       effect="simplify"
       id="path-effect1169"
       is_visible="true"
       lpeversion="1"
       steps="1"
       threshold="0.000859316"
       smooth_angles="360"
       helper_size="0"
       simplify_individual_paths="false"
       simplify_just_coalesce="false" />
    <inkscape:path-effect
       effect="simplify"
       id="path-effect1165"
       is_visible="true"
       lpeversion="1"
       steps="1"
       threshold="0.000859316"
       smooth_angles="360"
       helper_size="0"
       simplify_individual_paths="false"
       simplify_just_coalesce="false" />
  </defs>
  <sodipodi:namedview
     id="base"
     pagecolor="#ffffff"
     bordercolor="#666666"
     borderopacity="1.0"
     inkscape:pageopacity="0.0"
     inkscape:pageshadow="2"
     inkscape:zoom="11.313709"
     inkscape:cx="73.406521"
     inkscape:cy="53.961085"
     inkscape:document-units="mm"
     inkscape:current-layer="antena"
     showgrid="false"
     fit-margin-top="0"
     fit-margin-left="0"
     fit-margin-right="0"
     fit-margin-bottom="0"
     inkscape:window-width="1920"
     inkscape:window-height="1017"
     inkscape:window-x="-8"
     inkscape:window-y="-8"
     inkscape:window-maximized="1"
     inkscape:pagecheckerboard="0" />
  <metadata
     id="metadata7715">
    <rdf:RDF>
      <cc:Work
         rdf:about="">
        <dc:format>image/svg+xml</dc:format>
        <dc:type
           rdf:resource="http://purl.org/dc/dcmitype/StillImage" />
      </cc:Work>
    </rdf:RDF>
  </metadata>
  <g
     inkscape:label="Layer 1"
     inkscape:groupmode="layer"
     id="layer1"
     transform="translate(-62.007519,-68.212062)">
    <g
       id="robot-body">
      <g
         id="right-arm">
        <rect
           ry="0.67641258"
           rx="0.37189832"
           y="105.36721"
           x="94.919273"
           height="9.5438995"
           width="4.0632439"
           id="top-arm-r"
           style="fill:#4b0082;fill-opacity:1;fill-rule:evenodd;stroke:#ffffff;stroke-width:0.529167;stroke-linecap:round;stroke-linejoin:round;stroke-miterlimit:4;stroke-dasharray:none;stroke-dashoffset:0;stroke-opacity:1" />
        <rect
           ry="0.67641258"
           rx="0.37189832"
           y="110.50768"
           x="94.919266"
           height="9.5438995"
           width="4.0632439"
           id="bot-arm-r"
           style="fill:#4b0082;fill-opacity:1;fill-rule:evenodd;stroke:#ffffff;stroke-width:0.529167;stroke-linecap:round;stroke-linejoin:round;stroke-miterlimit:4;stroke-dasharray:none;stroke-dashoffset:0;stroke-opacity:1" />
      </g>
      <rect
         ry="0.67641258"
         rx="0.37189832"
         y="104.83804"
         x="71.390251"
         height="15.213541"
         width="23.529018"
         id="body-box"
         style="fill:#4b0082;fill-opacity:1;fill-rule:evenodd;stroke:#ffffff;stroke-width:0.529167;stroke-linecap:round;stroke-linejoin:round;stroke-miterlimit:4;stroke-dasharray:none;stroke-dashoffset:0;stroke-opacity:1" />
      <g
         id="chest-screen">
        <rect
           style="opacity:1;fill:#f0e68c;fill-opacity:1;fill-rule:evenodd;stroke:#ffffff;stroke-width:0.529167;stroke-linecap:round;stroke-linejoin:round;stroke-miterlimit:4;stroke-dasharray:none;stroke-dashoffset:0;stroke-opacity:1"
           id="robot-screen"
           width="15.875"
           height="6.6145835"
           x="75.264503"
           y="108.8068" />
        <path
           style="fill:none;stroke:#4b0082;stroke-width:0.529167;stroke-linecap:square;stroke-linejoin:round;stroke-miterlimit:4;stroke-dasharray:none;stroke-opacity:1;paint-order:stroke fill markers"
           d="m 75.595893,113.02743 5.782464,1e-5 0.500405,-1.89695 0.778406,3.74647 1.223215,-5.54857 0.722809,4.88464 0.667206,-2.51344 0.166801,1.18557 5.282056,2e-5"
           id="pulse-path"
           sodipodi:nodetypes="ccccccccc" />
      </g>
      <g
         id="left-arm">
        <rect
           ry="0.67641258"
           rx="0.37189832"
           y="105.36721"
           x="67.327011"
           height="9.5438995"
           width="4.0632439"
           id="top-part-l"
           style="fill:#4b0082;fill-opacity:1;fill-rule:evenodd;stroke:#ffffff;stroke-width:0.529167;stroke-linecap:round;stroke-linejoin:round;stroke-miterlimit:4;stroke-dasharray:none;stroke-dashoffset:0;stroke-opacity:1" />
        <rect
           ry="0.67641258"
           rx="0.37189832"
           y="110.50768"
           x="67.327011"
           height="9.5438995"
           width="4.0632439"
           id="bot-part-l"
           style="fill:#4b0082;fill-opacity:1;fill-rule:evenodd;stroke:#ffffff;stroke-width:0.529167;stroke-linecap:round;stroke-linejoin:round;stroke-miterlimit:4;stroke-dasharray:none;stroke-dashoffset:0;stroke-opacity:1" />
      </g>
    </g>
    <rect
       style="opacity:1;fill:#4b0082;fill-opacity:1;fill-rule:evenodd;stroke:#ffffff;stroke-width:0.529167;stroke-linecap:round;stroke-linejoin:round;stroke-miterlimit:4;stroke-dasharray:none;stroke-dashoffset:0;stroke-opacity:1"
       id="robot-neck"
       width="8.397624"
       height="2.9293153"
       x="78.955948"
       y="101.90875"
       rx="0"
       ry="0" />
    <g
       id="robot-leg">
      <g
         transform="translate(50.030395,-12.804903)"
         id="left-leg"
         style="fill:#4b0082;fill-opacity:1;stroke:#ffffff;stroke-width:0.529167;stroke-miterlimit:4;stroke-dasharray:none">
        <rect
           style="opacity:1;fill:#4b0082;fill-opacity:1;fill-rule:evenodd;stroke:#ffffff;stroke-width:0.529167;stroke-linecap:round;stroke-linejoin:round;stroke-miterlimit:4;stroke-dasharray:none;stroke-dashoffset:0;stroke-opacity:1"
           id="left-thigh"
           width="4.6858091"
           height="8.9170799"
           x="25.330711"
           y="132.84653"
           rx="0"
           ry="0" />
        <rect
           style="opacity:1;fill:#4b0082;fill-opacity:1;fill-rule:evenodd;stroke:#ffffff;stroke-width:0.529167;stroke-linecap:round;stroke-linejoin:round;stroke-miterlimit:4;stroke-dasharray:none;stroke-dashoffset:0;stroke-opacity:1"
           id="left-feet"
           width="7.8596735"
           height="4.5523801"
           x="23.743778"
           y="141.73796" />
      </g>
      <g
         id="right-leg"
         transform="translate(60.931899,-12.804903)"
         style="fill:#4b0082;fill-opacity:1;stroke:#ffffff;stroke-width:0.529167;stroke-miterlimit:4;stroke-dasharray:none">
        <rect
           style="opacity:1;fill:#4b0082;fill-opacity:1;fill-rule:evenodd;stroke:#ffffff;stroke-width:0.529167;stroke-linecap:round;stroke-linejoin:round;stroke-miterlimit:4;stroke-dasharray:none;stroke-dashoffset:0;stroke-opacity:1"
           id="rightthigh"
           width="4.6858091"
           height="8.9170799"
           x="25.330711"
           y="132.84653"
           rx="0"
           ry="0" />
        <rect
           style="opacity:1;fill:#4b0082;fill-opacity:1;fill-rule:evenodd;stroke:#ffffff;stroke-width:0.529167;stroke-linecap:round;stroke-linejoin:round;stroke-miterlimit:4;stroke-dasharray:none;stroke-dashoffset:0;stroke-opacity:1"
           id="right-feet"
           width="7.8596735"
           height="4.5523801"
           x="23.743778"
           y="141.73796" />
      </g>
    </g>
    <path
       id="spin-path-neck"
       style="fill:none;fill-rule:evenodd;stroke:#9400fd;stroke-width:0.578955;stroke-linecap:round;stroke-linejoin:round;stroke-miterlimit:4;stroke-dasharray:none;stroke-opacity:1"
       d="m 87.455071,102.43792 c 0.624121,-0.0425 3.460196,0.43034 3.460196,0.96114 0,0.53082 -3.496883,0.96112 -7.810506,0.96112 -4.313623,0 -7.819502,-0.47214 -7.810504,-0.96112 0.0093,-0.50161 2.533203,-0.98951 3.625396,-0.96114"
       sodipodi:nodetypes="csssc"
       class="spin-paths" />
    <path
       id="spin-path-neck-6-9"
       style="fill:none;fill-rule:evenodd;stroke:#9400fd;stroke-width:0.269933;stroke-linecap:round;stroke-linejoin:round;stroke-miterlimit:4;stroke-dasharray:none;stroke-opacity:1"
       d="m 84.330564,82.395403 c 0.189207,-0.03047 1.048983,0.308578 1.048983,0.689192 0,0.380628 -1.060105,0.689178 -2.367811,0.689178 -1.307706,0 -2.370539,-0.338552 -2.367811,-0.689178 0.0028,-0.359683 0.767959,-0.709535 1.099065,-0.689192"
       sodipodi:nodetypes="csssc"
       class="spin-paths" />
    <path
       id="spin-path-head"
       style="fill:none;fill-rule:evenodd;stroke:#9400fd;stroke-width:0.579437;stroke-linecap:round;stroke-linejoin:round;stroke-miterlimit:4;stroke-dasharray:none;stroke-opacity:0.898039"
       d="m 94.313126,91.677036 c 1.643126,-0.122779 9.109684,1.239852 9.109684,2.769298 0,1.529424 -9.206268,2.769287 -20.562763,2.769287 -11.356493,0 -20.586442,-1.360406 -20.562754,-2.769287 0.02432,-1.445288 6.669179,-2.851141 9.544597,-2.769298"
       sodipodi:nodetypes="csssc"
       class="spin-paths" />
    <path
       id="spin-path-head-0"
       style="fill:none;fill-rule:evenodd;stroke:#9400fd;stroke-width:0.417386;stroke-linecap:round;stroke-linejoin:round;stroke-miterlimit:4;stroke-dasharray:none;stroke-opacity:0.898039"
       d="m 92.846655,97.635658 c 1.416006,-0.07393 7.850535,0.746516 7.850535,1.667388 0,0.920874 -7.933764,1.667394 -17.720551,1.667394 -9.78678,0 -17.74095,-0.8191 -17.720536,-1.667394 0.02096,-0.870202 5.747354,-1.716666 8.225327,-1.667388"
       sodipodi:nodetypes="csssc"
       class="spin-paths" />
    <path
       id="spin-path-neck-6"
       style="fill:none;fill-rule:evenodd;stroke:#9400fd;stroke-width:0.470901;stroke-linecap:round;stroke-linejoin:round;stroke-miterlimit:4;stroke-dasharray:none;stroke-opacity:1"
       d="m 85.484739,76.209371 c 0.375948,-0.04667 2.084295,0.472628 2.084295,1.055589 0,0.582983 -2.106394,1.055568 -4.70476,1.055568 -2.598368,0 -4.710181,-0.518537 -4.70476,-1.055568 0.0056,-0.550903 1.525909,-1.086747 2.183804,-1.055589"
       sodipodi:nodetypes="csssc"
       class="spin-paths" />
    <g
       id="robot-head">
      <path
         style="fill:none;stroke:none;stroke-width:0.264583px;stroke-linecap:butt;stroke-linejoin:miter;stroke-opacity:1"
         d="m 80.301659,99.484488 1.426558,-0.63143 1.42655,0.46772 1.26285,-0.56127 1.73057,0.56127"
         id="mouth-dizzy"
         sodipodi:nodetypes="ccccc" />
      <rect
         style="fill:#4b0082;fill-opacity:1;fill-rule:evenodd;stroke:#ffffff;stroke-width:0.529;stroke-linecap:round;stroke-linejoin:round;stroke-miterlimit:4;stroke-dasharray:none;stroke-dashoffset:0;stroke-opacity:1"
         id="right-ear"
         width="2.7715523"
         height="4.8166962"
         x="92.865219"
         y="92.818962"
         rx="0.31376046"
         ry="0.60208905" />
      <rect
         style="fill:#4b0082;fill-opacity:1;fill-rule:evenodd;stroke:#ffffff;stroke-width:0.529;stroke-linecap:round;stroke-linejoin:round;stroke-miterlimit:4;stroke-dasharray:none;stroke-dashoffset:0;stroke-opacity:1"
         id="left-ear"
         width="2.7715523"
         height="4.8166962"
         x="70.709877"
         y="92.818962"
         rx="0.31376046"
         ry="0.60208905" />
      <rect
         style="fill:#4b0082;fill-opacity:1;fill-rule:evenodd;stroke:#ffffff;stroke-width:0.529;stroke-linecap:round;stroke-linejoin:round;stroke-miterlimit:4;stroke-dasharray:none;stroke-dashoffset:0;stroke-opacity:1"
         id="head"
         width="19.561693"
         height="13.282631"
         x="73.411865"
         y="88.585991"
         rx="1.9638433"
         ry="1.8049358" />
      <g
         id="antena">
        <path
           style="fill:none;stroke:none;stroke-width:0.79375;stroke-linecap:butt;stroke-linejoin:miter;stroke-miterlimit:4;stroke-dasharray:1.5875, 0.79375;stroke-dashoffset:0;stroke-opacity:1"
           d="m 82.937424,88.699383 c 0,0 -3.307291,-6.520089 -7.559524,-8.976934"
           id="antena-m-path-left" />
        <path
           style="fill:none;stroke:#4b0082;stroke-width:0.79375;stroke-linecap:butt;stroke-linejoin:miter;stroke-miterlimit:4;stroke-dasharray:1.5875, 0.79375;stroke-dashoffset:0;stroke-opacity:1"
           d="m 82.937424,88.699383 c 0,0 3.307291,-6.520089 7.559524,-8.976934"
           id="antena-m-path-right" />
        <path
           style="fill:none;stroke:#4b0082;stroke-width:0.764319;stroke-linecap:butt;stroke-linejoin:miter;stroke-miterlimit:4;stroke-dasharray:1.52864, 0.764319;stroke-dashoffset:0;stroke-opacity:1"
           d="m 82.960845,88.839136 c 0,0 -0.04102,-7.396539 -0.04102,-12.530364"
           id="antena-body"
           sodipodi:nodetypes="cc" />
        <circle
           style="fill:#f0e68c;fill-opacity:1;fill-rule:evenodd;stroke:#4b0082;stroke-width:0.79375;stroke-linecap:round;stroke-linejoin:round;stroke-miterlimit:4;stroke-dasharray:none;stroke-dashoffset:0;stroke-opacity:1"
           id="antena-led"
           cx="82.928955"
           cy="76.329132"
           r="1.8832169" />
        <circle
           style="fill:#ffffff;fill-opacity:1;fill-rule:evenodd;stroke:none;stroke-width:0.229358;stroke-linecap:round;stroke-linejoin:round;stroke-miterlimit:4;stroke-dasharray:none;stroke-dashoffset:0;stroke-opacity:1"
           id="path10401"
           cx="83.64267"
           cy="75.59819"
           r="0.36200944" />
      </g>
      <g
         id="eyes">
        <ellipse
           ry="2.271791"
           rx="2.4054255"
           cy="93.758224"
           cx="78.341568"
           id="left-eye"
           style="fill:#f0e68c;fill-opacity:1;fill-rule:evenodd;stroke:none;stroke-width:0.529167;stroke-linecap:round;stroke-linejoin:round;stroke-miterlimit:4;stroke-dasharray:none;stroke-dashoffset:0;stroke-opacity:1" />
        <ellipse
           ry="2.271791"
           rx="2.4054255"
           cy="93.758224"
           cx="87.967957"
           id="right-eye"
           style="fill:#f0e68c;fill-opacity:1;fill-rule:evenodd;stroke:none;stroke-width:0.529167;stroke-linecap:round;stroke-linejoin:round;stroke-miterlimit:4;stroke-dasharray:none;stroke-dashoffset:0;stroke-opacity:1" />
      </g>
      <path
         style="fill:#4b0082;fill-opacity:1;stroke:#ffffff;stroke-width:0.529167;stroke-linecap:round;stroke-linejoin:miter;stroke-miterlimit:4;stroke-dasharray:none;stroke-opacity:1"
         d="m 80.348433,98.569068 c 0,0 0.35047,0.230139 0.886617,0.452935 0.500923,0.208159 1.163928,0.409909 1.854614,0.411566 0.697885,0.0017 1.358455,-0.193278 1.86967,-0.405217 0.605717,-0.251118 1.001758,-0.526083 1.001758,-0.526083"
         id="mouth"
         inkscape:connector-curvature="0"
         sodipodi:nodetypes="csssc" />
      <g
         id="eye-dizzy">
        <path
           sodipodi:type="spiral"
           style="fill:none;fill-rule:evenodd;stroke:#4b0082;stroke-width:0.396875;stroke-linecap:round;stroke-miterlimit:4;stroke-dasharray:none;stroke-opacity:1"
           id="dizzy"
           sodipodi:cx="78.162498"
           sodipodi:cy="93.784195"
           sodipodi:expansion="1"
           sodipodi:revolution="3"
           sodipodi:radius="2.1600962"
           sodipodi:argument="-17.854185"
           sodipodi:t0="0"
           d="m 78.162498,93.784195 c 0.05894,0.09086 -0.0934,0.124276 -0.151019,0.09796 -0.156138,-0.07132 -0.137746,-0.286858 -0.0449,-0.399998 0.166083,-0.202382 0.477172,-0.16394 0.648976,0.0082 0.25213,0.252568 0.191516,0.670288 -0.06122,0.897956 -0.336861,0.303444 -0.864426,0.219716 -1.146934,-0.114285 -0.355507,-0.420305 -0.248247,-1.059059 0.167345,-1.395912 0.503338,-0.407974 1.253972,-0.276971 1.644891,0.220406 0.460685,0.586141 0.305817,1.449059 -0.273466,1.893869 -0.668806,0.513551 -1.644264,0.334743 -2.142849,-0.326527 -0.566523,-0.751377 -0.363725,-1.839549 0.379589,-2.391827 0.833886,-0.619571 2.034895,-0.392749 2.640805,0.432649 0.672675,0.916349 0.421804,2.230286 -0.48571,2.889784" />
        <path
           sodipodi:type="spiral"
           style="fill:none;fill-rule:evenodd;stroke:#4b0082;stroke-width:0.396875;stroke-linecap:round;stroke-miterlimit:4;stroke-dasharray:none;stroke-opacity:1"
           id="dizzy-3"
           sodipodi:cx="87.865204"
           sodipodi:cy="93.955917"
           sodipodi:expansion="1"
           sodipodi:revolution="2.9103191"
           sodipodi:radius="2.0598741"
           sodipodi:argument="-17.854185"
           sodipodi:t0="0"
           d="m 87.865204,93.955917 c 0.05794,0.08932 -0.09181,0.122162 -0.148451,0.09629 -0.153481,-0.0701 -0.135402,-0.281978 -0.04413,-0.393194 0.163258,-0.198939 0.469055,-0.161151 0.637936,0.008 0.247841,0.248271 0.188258,0.658885 -0.06018,0.882679 -0.331131,0.298283 -0.849721,0.215979 -1.127423,-0.11234 -0.349459,-0.413155 -0.244024,-1.041042 0.164498,-1.372165 0.494776,-0.401034 1.23264,-0.272259 1.616909,0.216656 0.452847,0.576171 0.300614,1.424409 -0.268815,1.861652 -0.657428,0.504814 -1.616291,0.329048 -2.106394,-0.320973 -0.556886,-0.738595 -0.357538,-1.808255 0.373131,-2.351137 0.8197,-0.609031 2.000277,-0.386068 2.59588,0.425289 0.404247,0.550684 0.488603,1.288422 0.237773,1.921453" />
      </g>
      <path
         sodipodi:type="star"
         style="fill:#4b0082;fill-opacity:1;fill-rule:evenodd;stroke:none;stroke-width:3;stroke-linecap:round;stroke-opacity:1;paint-order:stroke fill markers"
         id="star-eye"
         inkscape:flatsided="false"
         sodipodi:sides="5"
         sodipodi:cx="87.993813"
         sodipodi:cy="93.805588"
         sodipodi:r1="2.2043526"
         sodipodi:r2="1.1798339"
         sodipodi:arg1="0.94262092"
         sodipodi:arg2="1.6005221"
         inkscape:rounded="0"
         inkscape:randomized="0"
         d="m 89.289243,95.589132 -1.330497,-0.604232 -1.260875,0.603861 0.163512,-1.452096 -0.963937,-1.01256 1.431553,-0.293213 0.665129,-1.229657 0.721236,1.27088 1.37501,0.25259 -0.985805,1.07866 z" />
      <g
         id="heart-path">
        <path
           style="fill:none;fill-opacity:1;stroke:#4b0082;stroke-width:0.310148;stroke-linecap:round;stroke-linejoin:miter;stroke-miterlimit:4;stroke-dasharray:none;stroke-opacity:1"
           d="m 78.298163,95.456696 c 0,0 -1.418418,-0.9433 -1.543267,-1.581415 -0.124849,-0.638114 0.319057,-1.165253 0.735219,-1.262357 0.416162,-0.0971 0.679731,0.13872 0.790708,0.263569"
           id="path14767"
           sodipodi:nodetypes="cssc" />
        <path
           style="fill:none;fill-opacity:1;stroke:#4b0082;stroke-width:0.310148;stroke-linecap:round;stroke-linejoin:miter;stroke-miterlimit:4;stroke-dasharray:none;stroke-opacity:1"
           d="m 78.298163,95.456696 c 0,0 1.383738,-0.9433 1.508587,-1.581415 0.124848,-0.638114 -0.319058,-1.165253 -0.73522,-1.262357 -0.416162,-0.0971 -0.679731,0.13872 -0.790707,0.263569"
           id="path14767-7"
           sodipodi:nodetypes="cssc" />
      </g>
    </g>
    <g
       id="antena-effect">
      <circle
         style="fill:none;fill-opacity:1;fill-rule:evenodd;stroke:#4b0082;stroke-width:0.529167;stroke-linecap:round;stroke-linejoin:round;stroke-miterlimit:4;stroke-dasharray:none;stroke-dashoffset:0;stroke-opacity:1;paint-order:stroke fill markers"
         id="radiated-sound"
         cx="82.983505"
         cy="76.361557"
         r="3.3518062" />
      <g
         id="lightning-effect">
        <path
           style="fill:none;stroke:#000000;stroke-width:0.79375;stroke-linecap:butt;stroke-linejoin:miter;stroke-miterlimit:4;stroke-dasharray:none;stroke-opacity:1"
           d="m 80.155217,78.826258 -1.195928,2.41872 -1.30962,-2.268329 -1.693752,2.933664"
           id="path2875-1"
           inkscape:transform-center-x="2.0674532"
           inkscape:transform-center-y="1.492169" />
        <path
           style="fill:none;stroke:#000000;stroke-width:0.79375;stroke-linecap:butt;stroke-linejoin:miter;stroke-miterlimit:4;stroke-dasharray:none;stroke-opacity:1"
           d="m 85.874732,79.042891 1.195928,2.41872 1.30962,-2.268329 1.693752,2.933664"
           id="path2875-1-0"
           inkscape:transform-center-x="-2.0674535"
           inkscape:transform-center-y="1.492169" />
        <path
           style="fill:none;stroke:#000000;stroke-width:0.79375;stroke-linecap:butt;stroke-linejoin:miter;stroke-miterlimit:4;stroke-dasharray:none;stroke-opacity:1"
           d="M 83.116439,73.108466 81.61973,70.863402 h 2.619241 l -1.693752,-2.933664"
           id="path2875" />
      </g>
    </g>
  </g>
</svg>
