<?xml version="1.0" encoding="UTF-8" standalone="no"?>
<!-- Created with Inkscape (http://www.inkscape.org/) -->

<svg
   width="1122.9642"
   height="742.1701"
   viewBox="0 0 297.11761 196.36584"
   version="1.1"
   id="svg38"
   inkscape:version="1.1.1 (3bf5ae0d25, 2021-09-20)"
   sodipodi:docname="shoe-path.svg"
   xmlns:inkscape="http://www.inkscape.org/namespaces/inkscape"
   xmlns:sodipodi="http://sodipodi.sourceforge.net/DTD/sodipodi-0.dtd"
   xmlns="http://www.w3.org/2000/svg"
   xmlns:svg="http://www.w3.org/2000/svg"
   xmlns:rdf="http://www.w3.org/1999/02/22-rdf-syntax-ns#"
   xmlns:cc="http://creativecommons.org/ns#"
   xmlns:dc="http://purl.org/dc/elements/1.1/">
  <defs
     id="defs32">
    <inkscape:path-effect
       effect="simplify"
       id="path-effect632"
       is_visible="true"
       lpeversion="1"
       steps="1"
       threshold="0.000859316"
       smooth_angles="360"
       helper_size="0"
       simplify_individual_paths="false"
       simplify_just_coalesce="false" />
  </defs>
  <sodipodi:namedview
     id="base"
     pagecolor="#ffffff"
     bordercolor="#666666"
     borderopacity="1.0"
     inkscape:pageopacity="0.0"
     inkscape:pageshadow="2"
     inkscape:zoom="0.7"
     inkscape:cx="612.14286"
     inkscape:cy="249.28571"
     inkscape:document-units="px"
     inkscape:current-layer="layer1"
     showgrid="false"
     inkscape:window-width="1920"
     inkscape:window-height="1017"
     inkscape:window-x="-8"
     inkscape:window-y="-8"
     inkscape:window-maximized="1"
     inkscape:pagecheckerboard="0"
     fit-margin-top="0"
     fit-margin-left="0"
     fit-margin-right="0"
     fit-margin-bottom="0"
     units="px" />
  <metadata
     id="metadata35">
    <rdf:RDF>
      <cc:Work
         rdf:about="">
        <dc:format>image/svg+xml</dc:format>
        <dc:type
           rdf:resource="http://purl.org/dc/dcmitype/StillImage" />
      </cc:Work>
    </rdf:RDF>
  </metadata>
  <g
     inkscape:label="Layer 1"
     inkscape:groupmode="layer"
     id="layer1">
    <path
       style="fill:none;stroke:#000000;stroke-width:0.264583px;stroke-linecap:butt;stroke-linejoin:miter;stroke-opacity:1"
       d="m 59.34226,78.997023 c 0,0 -29.104166,1.133928 -42.333332,10.205358 C 3.7797618,98.273808 -2.2678571,107.34524 0.37797618,115.66071 3.0238094,123.97619 179.91666,148.92262 241.52678,138.33928 c 61.61012,-10.58333 54.42857,-34.01785 54.42857,-34.01785 0,0 -34.39583,-10.961313 -80.50893,-10.961313 -46.11309,0 -129.267849,0.377976 -150.056539,13.229163 -20.788691,12.85119 -36.285715,24.19048 -37.797621,31.75 -1.511903,7.55953 106.58929,24.94643 124.35417,26.83631 17.76488,1.88988 82.02083,-1.13393 93.36012,-3.40178 11.33928,-2.26786 29.86011,-10.96131 28.72619,-23.43453 -1.13393,-12.47321 -44.60119,-21.92261 -53.29465,-21.92261 -8.69345,0 -65.76785,-9.07143 -107.34523,-0.75596 -41.577385,8.31548 -70.303576,21.16667 -68.79167,31.37203 1.511904,10.20535 93.73809,38.93154 107.72321,39.6875 13.98512,0.75595 52.16072,2.26785 51.78274,-11.33929 -0.37798,-13.60714 -16.25298,-30.23809 -29.48214,-24.94643 -13.22917,5.29167 -34.77381,8.69345 -31.37203,20.78869 3.40179,12.09524 6.80358,23.43453 6.80358,23.43453"
       id="path937" />
  </g>
</svg>
