<?xml version="1.0" encoding="UTF-8" standalone="no"?>
<!-- Created with Inkscape (http://www.inkscape.org/) -->

<svg
   xmlns:dc="http://purl.org/dc/elements/1.1/"
   xmlns:cc="http://creativecommons.org/ns#"
   xmlns:rdf="http://www.w3.org/1999/02/22-rdf-syntax-ns#"
   xmlns:svg="http://www.w3.org/2000/svg"
   xmlns="http://www.w3.org/2000/svg"
   xmlns:sodipodi="http://sodipodi.sourceforge.net/DTD/sodipodi-0.dtd"
   xmlns:inkscape="http://www.inkscape.org/namespaces/inkscape"
   width="82.625107mm"
   height="63.27536mm"
   viewBox="0 0 82.625106 63.27536"
   version="1.1"
   id="svg8"
   inkscape:version="0.92.4 (5da689c313, 2019-01-14)"
   sodipodi:docname="truck 2.svg">
  <defs
     id="defs2" />
  <sodipodi:namedview
     id="base"
     pagecolor="#ffffff"
     bordercolor="#666666"
     borderopacity="1.0"
     inkscape:pageopacity="0.0"
     inkscape:pageshadow="2"
     inkscape:zoom="1.979899"
     inkscape:cx="-7.2057601"
     inkscape:cy="227.86092"
     inkscape:document-units="mm"
     inkscape:current-layer="layer1"
     showgrid="false"
     fit-margin-top="0"
     fit-margin-left="0"
     fit-margin-right="0"
     fit-margin-bottom="0"
     inkscape:window-width="1920"
     inkscape:window-height="1017"
     inkscape:window-x="-8"
     inkscape:window-y="-8"
     inkscape:window-maximized="1" />
  <metadata
     id="metadata5">
    <rdf:RDF>
      <cc:Work
         rdf:about="">
        <dc:format>image/svg+xml</dc:format>
        <dc:type
           rdf:resource="http://purl.org/dc/dcmitype/StillImage" />
        <dc:title />
      </cc:Work>
    </rdf:RDF>
  </metadata>
  <g
     inkscape:label="Layer 1"
     inkscape:groupmode="layer"
     id="layer1"
     transform="translate(-41.231073,-101.33852)">
    <g
       id="g878"
       transform="matrix(1,0,0,0.96192207,0,5.9376301)">
      <path
         style="opacity:1;fill:#4b0082;fill-opacity:1;fill-rule:evenodd;stroke:none;stroke-width:0.83974057;stroke-linecap:round;stroke-linejoin:round;stroke-miterlimit:4;stroke-dasharray:none;stroke-dashoffset:0;stroke-opacity:1"
         d="m 48.268887,101.33852 c -4.021086,0.0633 -5.460406,4.63839 -5.759059,7.96291 -1.816279,13.44281 -1.765892,27.16912 0.308746,40.57882 0.465714,3.06768 2.727955,6.56616 6.2506,6.05338 23.797232,0 47.594464,0 71.391696,0 2.68075,-1.51171 2.36647,-5.76084 3.11146,-8.53569 0.79835,-7.62617 0.85537,-15.48079 -0.96159,-22.97104 -0.21057,-2.50844 -1.84125,-4.30975 -4.35066,-3.69474 -3.6446,0 -7.28921,0 -10.93381,0 -0.0645,-4.85279 0.13473,-9.72057 -0.11035,-14.56316 -0.4197,-3.10981 -3.48252,-5.28441 -6.54039,-4.83048 -17.468881,0 -34.937762,0 -52.406643,0 z"
         id="rect10"
         inkscape:connector-curvature="0" />
      <path
         style="opacity:1;fill:#ffffff;fill-opacity:1;fill-rule:evenodd;stroke:none;stroke-width:0.12459445;stroke-linecap:round;stroke-linejoin:round;stroke-miterlimit:4;stroke-dasharray:none;stroke-dashoffset:0;stroke-opacity:1"
         d="m 108.77534,124.3792 c 3.0104,0.0351 6.03615,-0.0703 9.03691,0.053 0.76247,1.24689 0.40398,2.34466 0.57506,3.79953 -0.16977,1.11872 0.42976,4.13428 -1.41475,3.88071 -2.81033,-0.035 -5.636,0.0702 -8.43669,-0.053 -0.76247,-1.24688 -0.4708,-2.55304 -0.64188,-4.00792 0.20347,-1.00074 -0.24499,-3.20428 0.88135,-3.67232 z"
         id="rect10-8-9"
         inkscape:connector-curvature="0"
         sodipodi:nodetypes="ccccccc" />
    </g>
    <g
       id="g872" />
    <path
       style="fill:none;stroke:#000000;stroke-width:0.26458332px;stroke-linecap:butt;stroke-linejoin:miter;stroke-opacity:1"
       d="M 39.627455,129.57587 Z"
       id="path880"
       inkscape:connector-curvature="0" />
  </g>
</svg>
