<?xml version="1.0" encoding="UTF-8" standalone="no"?>
<!-- Created with Inkscape (http://www.inkscape.org/) -->

<svg
   xmlns:dc="http://purl.org/dc/elements/1.1/"
   xmlns:cc="http://creativecommons.org/ns#"
   xmlns:rdf="http://www.w3.org/1999/02/22-rdf-syntax-ns#"
   xmlns:svg="http://www.w3.org/2000/svg"
   xmlns="http://www.w3.org/2000/svg"
   xmlns:sodipodi="http://sodipodi.sourceforge.net/DTD/sodipodi-0.dtd"
   xmlns:inkscape="http://www.inkscape.org/namespaces/inkscape"
   width="79.625114mm"
   height="63.27536mm"
   viewBox="0 0 79.625114 63.27536"
   version="1.1"
   id="svg8"
   inkscape:version="0.92.4 (5da689c313, 2019-01-14)"
   sodipodi:docname="truck.svg">
  <defs
     id="defs2" />
  <sodipodi:namedview
     id="base"
     pagecolor="#ffffff"
     bordercolor="#666666"
     borderopacity="1.0"
     inkscape:pageopacity="0.0"
     inkscape:pageshadow="2"
     inkscape:zoom="3.959798"
     inkscape:cx="167.22415"
     inkscape:cy="187.17146"
     inkscape:document-units="mm"
     inkscape:current-layer="layer1"
     showgrid="false"
     fit-margin-top="0"
     fit-margin-left="0"
     fit-margin-right="0"
     fit-margin-bottom="0"
     inkscape:window-width="1920"
     inkscape:window-height="1017"
     inkscape:window-x="-8"
     inkscape:window-y="-8"
     inkscape:window-maximized="1" />
  <metadata
     id="metadata5">
    <rdf:RDF>
      <cc:Work
         rdf:about="">
        <dc:format>image/svg+xml</dc:format>
        <dc:type
           rdf:resource="http://purl.org/dc/dcmitype/StillImage" />
        <dc:title />
      </cc:Work>
    </rdf:RDF>
  </metadata>
  <g
     inkscape:label="Layer 1"
     inkscape:groupmode="layer"
     id="layer1"
     transform="translate(-41.231073,-101.33852)">
    <g
       id="g878">
      <path
         style="opacity:1;fill:#4b0082;fill-opacity:1;fill-rule:evenodd;stroke:none;stroke-width:0.83974057;stroke-linecap:round;stroke-linejoin:round;stroke-miterlimit:4;stroke-dasharray:none;stroke-dashoffset:0;stroke-opacity:1"
         d="m 46.681387,101.33852 c -3.681426,-0.0394 -5.901235,3.87011 -5.450314,7.2119 0.01866,13.98327 -0.03733,27.96822 0.02804,41.95044 0.139557,3.32242 3.304321,5.93875 6.580807,5.43277 23.677816,0 47.35563,0 71.03344,0 2.40918,-0.82008 1.92343,-3.94253 1.98283,-6.02709 -0.0265,-8.68616 0.0531,-17.37572 -0.0401,-26.05974 0.18571,-2.64512 -2.13125,-3.4985 -4.25975,-3.11464 -3.60584,0 -7.21169,0 -10.81754,0 -0.0661,-4.8527 0.13692,-9.72069 -0.11034,-14.56316 -0.41883,-3.08803 -3.4524,-5.27649 -6.498498,-4.83048 -17.482843,0 -34.96569,0 -52.448533,0 z"
         id="rect10"
         inkscape:connector-curvature="0" />
    </g>
    <g
       id="g872">
      <circle
         r="8.6014557"
         cy="154.90758"
         cx="58.302303"
         id="path853"
         style="opacity:1;fill:#4b0082;fill-opacity:1;fill-rule:evenodd;stroke:#ffffff;stroke-width:2.20968747;stroke-linecap:round;stroke-linejoin:round;stroke-miterlimit:4;stroke-dasharray:none;stroke-dashoffset:0;stroke-opacity:1" />
      <circle
         r="8.6014557"
         cy="154.82867"
         cx="100.05492"
         id="path853-1"
         style="opacity:1;fill:#4b0082;fill-opacity:1;fill-rule:evenodd;stroke:#ffffff;stroke-width:2.20968747;stroke-linecap:round;stroke-linejoin:round;stroke-miterlimit:4;stroke-dasharray:none;stroke-dashoffset:0;stroke-opacity:1" />
    </g>
    <path
       style="opacity:1;fill:#ffffff;fill-opacity:1;fill-rule:evenodd;stroke:none;stroke-width:0.12219927;stroke-linecap:round;stroke-linejoin:round;stroke-miterlimit:4;stroke-dasharray:none;stroke-dashoffset:0;stroke-opacity:1"
       d="m 106.52288,123.60737 c 3.0104,0.0338 6.03615,-0.0676 9.03691,0.051 0.76247,1.19941 0.78196,2.32625 0.74042,3.7021 0.0428,1.07613 0.21715,3.64613 -1.58011,3.68569 -2.81033,-0.0337 -5.636,0.0675 -8.43669,-0.051 -0.76247,-1.1994 -0.4708,-2.45582 -0.64188,-3.8553 0.20347,-0.96264 -0.24499,-3.08227 0.88135,-3.53249 z"
       id="rect10-8-9"
       inkscape:connector-curvature="0"
       sodipodi:nodetypes="ccccccc" />
  </g>
</svg>
